<mxfile host="Electron" agent="Mozilla/5.0 (Windows NT 10.0; Win64; x64) AppleWebKit/537.36 (KHTML, like Gecko) draw.io/24.7.17 Chrome/128.0.6613.36 Electron/32.0.1 Safari/537.36" version="24.7.17" pages="11">
  <diagram name="OSI七层模型" id="kcrXX2a59Rj-RcSPHwbT">
    <mxGraphModel dx="1434" dy="836" grid="1" gridSize="10" guides="1" tooltips="1" connect="1" arrows="1" fold="1" page="1" pageScale="1" pageWidth="827" pageHeight="1169" math="0" shadow="0">
      <root>
        <mxCell id="0" />
        <mxCell id="1" parent="0" />
        <mxCell id="H6wgcr1sYH_bFEHnexCG-8" value="" style="group" vertex="1" connectable="0" parent="1">
          <mxGeometry x="80" y="227" width="170" height="385" as="geometry" />
        </mxCell>
        <mxCell id="H6wgcr1sYH_bFEHnexCG-1" value="物理层" style="rounded=0;whiteSpace=wrap;html=1;fontSize=18;fillColor=#001933;strokeColor=#000033;" vertex="1" parent="H6wgcr1sYH_bFEHnexCG-8">
          <mxGeometry y="330" width="170" height="55" as="geometry" />
        </mxCell>
        <mxCell id="H6wgcr1sYH_bFEHnexCG-2" value="数据链路层" style="rounded=0;whiteSpace=wrap;html=1;fontSize=18;fillColor=#003366;strokeColor=#000033;" vertex="1" parent="H6wgcr1sYH_bFEHnexCG-8">
          <mxGeometry y="275" width="170" height="55" as="geometry" />
        </mxCell>
        <mxCell id="H6wgcr1sYH_bFEHnexCG-3" value="网络层" style="rounded=0;whiteSpace=wrap;html=1;fontSize=18;fillColor=#004C99;strokeColor=#000033;" vertex="1" parent="H6wgcr1sYH_bFEHnexCG-8">
          <mxGeometry y="220" width="170" height="55" as="geometry" />
        </mxCell>
        <mxCell id="H6wgcr1sYH_bFEHnexCG-4" value="传输层" style="rounded=0;whiteSpace=wrap;html=1;fontSize=18;fillColor=#0066CC;strokeColor=#000033;" vertex="1" parent="H6wgcr1sYH_bFEHnexCG-8">
          <mxGeometry y="165" width="170" height="55" as="geometry" />
        </mxCell>
        <mxCell id="H6wgcr1sYH_bFEHnexCG-5" value="会话层" style="rounded=0;whiteSpace=wrap;html=1;fontSize=18;fillColor=#007FFF;strokeColor=#000033;" vertex="1" parent="H6wgcr1sYH_bFEHnexCG-8">
          <mxGeometry y="110" width="170" height="55" as="geometry" />
        </mxCell>
        <mxCell id="H6wgcr1sYH_bFEHnexCG-6" value="表示层" style="rounded=0;whiteSpace=wrap;html=1;fontSize=18;fillColor=#3399FF;strokeColor=#000033;" vertex="1" parent="H6wgcr1sYH_bFEHnexCG-8">
          <mxGeometry y="55" width="170" height="55" as="geometry" />
        </mxCell>
        <mxCell id="H6wgcr1sYH_bFEHnexCG-7" value="应用层" style="rounded=0;whiteSpace=wrap;html=1;fontSize=18;fillColor=#66B2FF;strokeColor=#000033;" vertex="1" parent="H6wgcr1sYH_bFEHnexCG-8">
          <mxGeometry width="170" height="55" as="geometry" />
        </mxCell>
        <mxCell id="H6wgcr1sYH_bFEHnexCG-9" value="" style="group" vertex="1" connectable="0" parent="1">
          <mxGeometry x="580" y="227" width="170" height="385" as="geometry" />
        </mxCell>
        <mxCell id="H6wgcr1sYH_bFEHnexCG-10" value="物理层" style="rounded=0;whiteSpace=wrap;html=1;fontSize=18;fillColor=#001933;strokeColor=#000033;" vertex="1" parent="H6wgcr1sYH_bFEHnexCG-9">
          <mxGeometry y="330" width="170" height="55" as="geometry" />
        </mxCell>
        <mxCell id="H6wgcr1sYH_bFEHnexCG-11" value="数据链路层" style="rounded=0;whiteSpace=wrap;html=1;fontSize=18;fillColor=#003366;strokeColor=#000033;" vertex="1" parent="H6wgcr1sYH_bFEHnexCG-9">
          <mxGeometry y="275" width="170" height="55" as="geometry" />
        </mxCell>
        <mxCell id="H6wgcr1sYH_bFEHnexCG-12" value="网络层" style="rounded=0;whiteSpace=wrap;html=1;fontSize=18;fillColor=#004C99;strokeColor=#000033;" vertex="1" parent="H6wgcr1sYH_bFEHnexCG-9">
          <mxGeometry y="220" width="170" height="55" as="geometry" />
        </mxCell>
        <mxCell id="H6wgcr1sYH_bFEHnexCG-13" value="传输层" style="rounded=0;whiteSpace=wrap;html=1;fontSize=18;fillColor=#0066CC;strokeColor=#000033;" vertex="1" parent="H6wgcr1sYH_bFEHnexCG-9">
          <mxGeometry y="165" width="170" height="55" as="geometry" />
        </mxCell>
        <mxCell id="H6wgcr1sYH_bFEHnexCG-14" value="会话层" style="rounded=0;whiteSpace=wrap;html=1;fontSize=18;fillColor=#007FFF;strokeColor=#000033;" vertex="1" parent="H6wgcr1sYH_bFEHnexCG-9">
          <mxGeometry y="110" width="170" height="55" as="geometry" />
        </mxCell>
        <mxCell id="H6wgcr1sYH_bFEHnexCG-15" value="表示层" style="rounded=0;whiteSpace=wrap;html=1;fontSize=18;fillColor=#3399FF;strokeColor=#000033;" vertex="1" parent="H6wgcr1sYH_bFEHnexCG-9">
          <mxGeometry y="55" width="170" height="55" as="geometry" />
        </mxCell>
        <mxCell id="H6wgcr1sYH_bFEHnexCG-16" value="应用层" style="rounded=0;whiteSpace=wrap;html=1;fontSize=18;fillColor=#66B2FF;strokeColor=#000033;" vertex="1" parent="H6wgcr1sYH_bFEHnexCG-9">
          <mxGeometry width="170" height="55" as="geometry" />
        </mxCell>
        <mxCell id="H6wgcr1sYH_bFEHnexCG-17" value="" style="endArrow=classic;html=1;rounded=0;strokeWidth=10;strokeColor=#3333FF;fontColor=none;noLabel=1;" edge="1" parent="1">
          <mxGeometry width="50" height="50" relative="1" as="geometry">
            <mxPoint x="40" y="290" as="sourcePoint" />
            <mxPoint x="40" y="510" as="targetPoint" />
          </mxGeometry>
        </mxCell>
        <mxCell id="H6wgcr1sYH_bFEHnexCG-18" value="" style="endArrow=classic;html=1;rounded=0;strokeWidth=10;strokeColor=#3333FF;fontColor=none;noLabel=1;" edge="1" parent="1">
          <mxGeometry width="50" height="50" relative="1" as="geometry">
            <mxPoint x="790" y="510" as="sourcePoint" />
            <mxPoint x="790" y="280" as="targetPoint" />
          </mxGeometry>
        </mxCell>
        <mxCell id="H6wgcr1sYH_bFEHnexCG-19" style="edgeStyle=orthogonalEdgeStyle;rounded=0;orthogonalLoop=1;jettySize=auto;html=1;entryX=0;entryY=0.5;entryDx=0;entryDy=0;startArrow=classic;startFill=1;endArrow=classic;endFill=1;strokeWidth=5;strokeColor=#CCE5FF;fontSize=16;" edge="1" parent="1" source="H6wgcr1sYH_bFEHnexCG-7" target="H6wgcr1sYH_bFEHnexCG-16">
          <mxGeometry relative="1" as="geometry" />
        </mxCell>
        <mxCell id="H6wgcr1sYH_bFEHnexCG-26" value="应用层协议" style="edgeLabel;html=1;align=center;verticalAlign=middle;resizable=0;points=[];fontSize=16;labelBackgroundColor=default;fontColor=#EAFFE9;" vertex="1" connectable="0" parent="H6wgcr1sYH_bFEHnexCG-19">
          <mxGeometry x="-0.0303" y="1" relative="1" as="geometry">
            <mxPoint y="1" as="offset" />
          </mxGeometry>
        </mxCell>
        <mxCell id="H6wgcr1sYH_bFEHnexCG-20" style="edgeStyle=orthogonalEdgeStyle;rounded=0;orthogonalLoop=1;jettySize=auto;html=1;entryX=0;entryY=0.5;entryDx=0;entryDy=0;startArrow=classic;startFill=1;endArrow=classic;endFill=1;strokeWidth=5;strokeColor=#CCE5FF;fontSize=16;" edge="1" parent="1" source="H6wgcr1sYH_bFEHnexCG-6" target="H6wgcr1sYH_bFEHnexCG-15">
          <mxGeometry relative="1" as="geometry" />
        </mxCell>
        <mxCell id="H6wgcr1sYH_bFEHnexCG-27" value="&lt;font style=&quot;font-size: 16px;&quot;&gt;表示层协议&lt;/font&gt;" style="edgeLabel;html=1;align=center;verticalAlign=middle;resizable=0;points=[];" vertex="1" connectable="0" parent="H6wgcr1sYH_bFEHnexCG-20">
          <mxGeometry x="-0.0052" y="1" relative="1" as="geometry">
            <mxPoint as="offset" />
          </mxGeometry>
        </mxCell>
        <mxCell id="H6wgcr1sYH_bFEHnexCG-21" style="edgeStyle=orthogonalEdgeStyle;rounded=0;orthogonalLoop=1;jettySize=auto;html=1;entryX=0;entryY=0.5;entryDx=0;entryDy=0;startArrow=classic;startFill=1;endArrow=classic;endFill=1;strokeWidth=5;strokeColor=#CCE5FF;fontSize=16;" edge="1" parent="1" source="H6wgcr1sYH_bFEHnexCG-5" target="H6wgcr1sYH_bFEHnexCG-14">
          <mxGeometry relative="1" as="geometry" />
        </mxCell>
        <mxCell id="H6wgcr1sYH_bFEHnexCG-28" value="&lt;font style=&quot;font-size: 16px;&quot;&gt;会话层协议&lt;/font&gt;" style="edgeLabel;html=1;align=center;verticalAlign=middle;resizable=0;points=[];" vertex="1" connectable="0" parent="H6wgcr1sYH_bFEHnexCG-21">
          <mxGeometry x="-0.0052" y="3" relative="1" as="geometry">
            <mxPoint as="offset" />
          </mxGeometry>
        </mxCell>
        <mxCell id="H6wgcr1sYH_bFEHnexCG-22" style="edgeStyle=orthogonalEdgeStyle;rounded=0;orthogonalLoop=1;jettySize=auto;html=1;entryX=0;entryY=0.5;entryDx=0;entryDy=0;startArrow=classic;startFill=1;endArrow=classic;endFill=1;strokeWidth=5;strokeColor=#CCE5FF;fontSize=16;" edge="1" parent="1" source="H6wgcr1sYH_bFEHnexCG-4" target="H6wgcr1sYH_bFEHnexCG-13">
          <mxGeometry relative="1" as="geometry" />
        </mxCell>
        <mxCell id="H6wgcr1sYH_bFEHnexCG-30" value="&lt;font style=&quot;font-size: 16px;&quot;&gt;传输层协议&lt;/font&gt;" style="edgeLabel;html=1;align=center;verticalAlign=middle;resizable=0;points=[];" vertex="1" connectable="0" parent="H6wgcr1sYH_bFEHnexCG-22">
          <mxGeometry x="0.0087" y="3" relative="1" as="geometry">
            <mxPoint as="offset" />
          </mxGeometry>
        </mxCell>
        <mxCell id="H6wgcr1sYH_bFEHnexCG-23" style="edgeStyle=orthogonalEdgeStyle;rounded=0;orthogonalLoop=1;jettySize=auto;html=1;entryX=0;entryY=0.5;entryDx=0;entryDy=0;startArrow=classic;startFill=1;endArrow=classic;endFill=1;strokeWidth=5;strokeColor=#CCE5FF;fontSize=16;" edge="1" parent="1" source="H6wgcr1sYH_bFEHnexCG-3" target="H6wgcr1sYH_bFEHnexCG-12">
          <mxGeometry relative="1" as="geometry" />
        </mxCell>
        <mxCell id="H6wgcr1sYH_bFEHnexCG-32" value="&lt;font style=&quot;font-size: 16px;&quot;&gt;网络层协议&lt;/font&gt;" style="edgeLabel;html=1;align=center;verticalAlign=middle;resizable=0;points=[];" vertex="1" connectable="0" parent="H6wgcr1sYH_bFEHnexCG-23">
          <mxGeometry x="-0.0667" y="4" relative="1" as="geometry">
            <mxPoint x="10" y="1" as="offset" />
          </mxGeometry>
        </mxCell>
        <mxCell id="H6wgcr1sYH_bFEHnexCG-24" style="edgeStyle=orthogonalEdgeStyle;rounded=0;orthogonalLoop=1;jettySize=auto;html=1;entryX=0;entryY=0.5;entryDx=0;entryDy=0;startArrow=classic;startFill=1;endArrow=classic;endFill=1;strokeWidth=5;strokeColor=#CCE5FF;fontSize=16;" edge="1" parent="1" source="H6wgcr1sYH_bFEHnexCG-2" target="H6wgcr1sYH_bFEHnexCG-11">
          <mxGeometry relative="1" as="geometry" />
        </mxCell>
        <mxCell id="H6wgcr1sYH_bFEHnexCG-33" value="&lt;font style=&quot;font-size: 16px;&quot;&gt;数据链路层协议&lt;/font&gt;" style="edgeLabel;html=1;align=center;verticalAlign=middle;resizable=0;points=[];" vertex="1" connectable="0" parent="H6wgcr1sYH_bFEHnexCG-24">
          <mxGeometry x="-0.0303" y="4" relative="1" as="geometry">
            <mxPoint x="4" y="4" as="offset" />
          </mxGeometry>
        </mxCell>
        <mxCell id="H6wgcr1sYH_bFEHnexCG-25" style="edgeStyle=orthogonalEdgeStyle;rounded=0;orthogonalLoop=1;jettySize=auto;html=1;entryX=0;entryY=0.5;entryDx=0;entryDy=0;startArrow=classic;startFill=1;endArrow=classic;endFill=1;strokeWidth=5;strokeColor=#CCE5FF;fontSize=16;" edge="1" parent="1" source="H6wgcr1sYH_bFEHnexCG-1" target="H6wgcr1sYH_bFEHnexCG-10">
          <mxGeometry relative="1" as="geometry" />
        </mxCell>
        <mxCell id="H6wgcr1sYH_bFEHnexCG-35" value="&lt;font style=&quot;font-size: 16px;&quot;&gt;物理层协议&lt;/font&gt;" style="edgeLabel;html=1;align=center;verticalAlign=middle;resizable=0;points=[];" vertex="1" connectable="0" parent="H6wgcr1sYH_bFEHnexCG-25">
          <mxGeometry x="0.0667" y="3" relative="1" as="geometry">
            <mxPoint x="-12" y="4" as="offset" />
          </mxGeometry>
        </mxCell>
        <mxCell id="H6wgcr1sYH_bFEHnexCG-29" value="HTTP、FTP、SMTP、DNS、POP3、Telnet、IMAP等" style="text;html=1;align=center;verticalAlign=middle;resizable=0;points=[];autosize=1;strokeColor=none;fillColor=none;fontStyle=1" vertex="1" parent="1">
          <mxGeometry x="259" y="220" width="310" height="30" as="geometry" />
        </mxCell>
        <mxCell id="H6wgcr1sYH_bFEHnexCG-31" value="JPEG、MPEG、GIF、SSL/TLS" style="text;html=1;align=center;verticalAlign=middle;resizable=0;points=[];autosize=1;strokeColor=none;fillColor=none;fontStyle=1" vertex="1" parent="1">
          <mxGeometry x="319" y="275" width="190" height="30" as="geometry" />
        </mxCell>
        <mxCell id="H6wgcr1sYH_bFEHnexCG-36" value="&lt;b&gt;NetBIOS、RPC、SQL&lt;/b&gt;" style="text;html=1;align=center;verticalAlign=middle;resizable=0;points=[];autosize=1;strokeColor=none;fillColor=none;" vertex="1" parent="1">
          <mxGeometry x="339" y="330" width="150" height="30" as="geometry" />
        </mxCell>
        <mxCell id="H6wgcr1sYH_bFEHnexCG-37" value="&lt;b&gt;TCP、UDP&lt;/b&gt;" style="text;html=1;align=center;verticalAlign=middle;resizable=0;points=[];autosize=1;strokeColor=none;fillColor=none;" vertex="1" parent="1">
          <mxGeometry x="374" y="382" width="80" height="30" as="geometry" />
        </mxCell>
        <mxCell id="H6wgcr1sYH_bFEHnexCG-38" value="&lt;b&gt;IP、ICMP、ARP&lt;/b&gt;" style="text;html=1;align=center;verticalAlign=middle;resizable=0;points=[];autosize=1;strokeColor=none;fillColor=none;" vertex="1" parent="1">
          <mxGeometry x="359" y="437" width="110" height="30" as="geometry" />
        </mxCell>
        <mxCell id="H6wgcr1sYH_bFEHnexCG-39" value="Ethernet、PPP、HDLC" style="text;html=1;align=center;verticalAlign=middle;resizable=0;points=[];autosize=1;strokeColor=none;fillColor=none;fontStyle=1" vertex="1" parent="1">
          <mxGeometry x="339" y="492" width="150" height="30" as="geometry" />
        </mxCell>
        <mxCell id="H6wgcr1sYH_bFEHnexCG-40" value="Ethernet电缆、光纤、Wi-Fi" style="text;html=1;align=center;verticalAlign=middle;resizable=0;points=[];autosize=1;strokeColor=none;fillColor=none;fontStyle=1" vertex="1" parent="1">
          <mxGeometry x="329" y="550" width="170" height="30" as="geometry" />
        </mxCell>
        <mxCell id="H6wgcr1sYH_bFEHnexCG-41" value="" style="endArrow=classic;html=1;rounded=0;strokeWidth=10;strokeColor=#3333FF;fontColor=none;noLabel=1;" edge="1" parent="1">
          <mxGeometry width="50" height="50" relative="1" as="geometry">
            <mxPoint x="219" y="640" as="sourcePoint" />
            <mxPoint x="609" y="640" as="targetPoint" />
          </mxGeometry>
        </mxCell>
      </root>
    </mxGraphModel>
  </diagram>
  <diagram id="hgy7uec3FO6FDQ1D58xW" name="以太网帧头">
    <mxGraphModel dx="956" dy="557" grid="1" gridSize="10" guides="1" tooltips="1" connect="1" arrows="1" fold="1" page="1" pageScale="1" pageWidth="827" pageHeight="1169" math="0" shadow="0">
      <root>
        <mxCell id="0" />
        <mxCell id="1" parent="0" />
        <mxCell id="capyjba00Gahq9tDNRmq-1" value="Target MAC" style="rounded=0;whiteSpace=wrap;html=1;fillColor=#60a917;fontColor=#ffffff;strokeColor=#2D7600;" vertex="1" parent="1">
          <mxGeometry x="54" y="130" width="280" height="40" as="geometry" />
        </mxCell>
        <mxCell id="capyjba00Gahq9tDNRmq-2" value="Source MAC" style="rounded=0;whiteSpace=wrap;html=1;fillColor=#008a00;fontColor=#ffffff;strokeColor=#005700;" vertex="1" parent="1">
          <mxGeometry x="334" y="130" width="280" height="40" as="geometry" />
        </mxCell>
        <mxCell id="capyjba00Gahq9tDNRmq-17" style="edgeStyle=orthogonalEdgeStyle;rounded=0;orthogonalLoop=1;jettySize=auto;html=1;" edge="1" parent="1" source="capyjba00Gahq9tDNRmq-3" target="capyjba00Gahq9tDNRmq-13">
          <mxGeometry relative="1" as="geometry" />
        </mxCell>
        <mxCell id="capyjba00Gahq9tDNRmq-3" value="Type" style="rounded=0;whiteSpace=wrap;html=1;fillColor=#1ba1e2;fontColor=#ffffff;strokeColor=#006EAF;" vertex="1" parent="1">
          <mxGeometry x="614" y="130" width="80" height="40" as="geometry" />
        </mxCell>
        <mxCell id="capyjba00Gahq9tDNRmq-5" value="" style="shape=curlyBracket;whiteSpace=wrap;html=1;rounded=1;flipH=1;labelPosition=right;verticalLabelPosition=middle;align=left;verticalAlign=middle;rotation=90;" vertex="1" parent="1">
          <mxGeometry x="364" y="-140" width="20" height="640" as="geometry" />
        </mxCell>
        <mxCell id="capyjba00Gahq9tDNRmq-6" value="14 bytes" style="text;html=1;align=center;verticalAlign=middle;whiteSpace=wrap;rounded=0;" vertex="1" parent="1">
          <mxGeometry x="384" y="190" width="60" height="30" as="geometry" />
        </mxCell>
        <mxCell id="capyjba00Gahq9tDNRmq-7" value="6 bytes" style="text;html=1;align=center;verticalAlign=middle;whiteSpace=wrap;rounded=0;" vertex="1" parent="1">
          <mxGeometry x="164" y="80" width="60" height="30" as="geometry" />
        </mxCell>
        <mxCell id="capyjba00Gahq9tDNRmq-8" value="" style="shape=curlyBracket;whiteSpace=wrap;html=1;rounded=1;labelPosition=left;verticalLabelPosition=middle;align=right;verticalAlign=middle;rotation=90;" vertex="1" parent="1">
          <mxGeometry x="184" y="-20" width="20" height="280" as="geometry" />
        </mxCell>
        <mxCell id="capyjba00Gahq9tDNRmq-9" value="6 bytes" style="text;html=1;align=center;verticalAlign=middle;whiteSpace=wrap;rounded=0;" vertex="1" parent="1">
          <mxGeometry x="444" y="80" width="60" height="30" as="geometry" />
        </mxCell>
        <mxCell id="capyjba00Gahq9tDNRmq-10" value="" style="shape=curlyBracket;whiteSpace=wrap;html=1;rounded=1;labelPosition=left;verticalLabelPosition=middle;align=right;verticalAlign=middle;rotation=90;" vertex="1" parent="1">
          <mxGeometry x="464" y="-20" width="20" height="280" as="geometry" />
        </mxCell>
        <mxCell id="capyjba00Gahq9tDNRmq-11" value="" style="shape=curlyBracket;whiteSpace=wrap;html=1;rounded=1;labelPosition=left;verticalLabelPosition=middle;align=right;verticalAlign=middle;rotation=90;" vertex="1" parent="1">
          <mxGeometry x="644" y="80" width="20" height="80" as="geometry" />
        </mxCell>
        <mxCell id="capyjba00Gahq9tDNRmq-12" value="2 bytes" style="text;html=1;align=center;verticalAlign=middle;whiteSpace=wrap;rounded=0;" vertex="1" parent="1">
          <mxGeometry x="624" y="80" width="60" height="30" as="geometry" />
        </mxCell>
        <mxCell id="capyjba00Gahq9tDNRmq-13" value="Type" style="swimlane;fontStyle=1;childLayout=stackLayout;horizontal=1;startSize=26;fillColor=#1ba1e2;horizontalStack=0;resizeParent=1;resizeParentMax=0;resizeLast=0;collapsible=1;marginBottom=0;whiteSpace=wrap;html=1;fontColor=#ffffff;strokeColor=#006EAF;fontFamily=Courier New;" vertex="1" parent="1">
          <mxGeometry x="584" y="230" width="140" height="104" as="geometry" />
        </mxCell>
        <mxCell id="capyjba00Gahq9tDNRmq-14" value="+ 0x0800: IPv4" style="text;strokeColor=none;fillColor=none;align=left;verticalAlign=top;spacingLeft=4;spacingRight=4;overflow=hidden;rotatable=0;points=[[0,0.5],[1,0.5]];portConstraint=eastwest;whiteSpace=wrap;html=1;fontFamily=Courier New;fontStyle=1" vertex="1" parent="capyjba00Gahq9tDNRmq-13">
          <mxGeometry y="26" width="140" height="26" as="geometry" />
        </mxCell>
        <mxCell id="capyjba00Gahq9tDNRmq-15" value="+ 0x0806: ARP" style="text;strokeColor=none;fillColor=none;align=left;verticalAlign=top;spacingLeft=4;spacingRight=4;overflow=hidden;rotatable=0;points=[[0,0.5],[1,0.5]];portConstraint=eastwest;whiteSpace=wrap;html=1;fontFamily=Courier New;fontStyle=1" vertex="1" parent="capyjba00Gahq9tDNRmq-13">
          <mxGeometry y="52" width="140" height="26" as="geometry" />
        </mxCell>
        <mxCell id="capyjba00Gahq9tDNRmq-16" value="+ 0x86DD: IPv6" style="text;strokeColor=none;fillColor=none;align=left;verticalAlign=top;spacingLeft=4;spacingRight=4;overflow=hidden;rotatable=0;points=[[0,0.5],[1,0.5]];portConstraint=eastwest;whiteSpace=wrap;html=1;fontFamily=Courier New;fontStyle=1" vertex="1" parent="capyjba00Gahq9tDNRmq-13">
          <mxGeometry y="78" width="140" height="26" as="geometry" />
        </mxCell>
      </root>
    </mxGraphModel>
  </diagram>
  <diagram id="TKN1FoY4bX4YStbpoPuI" name="ARP协议">
    <mxGraphModel dx="989" dy="577" grid="1" gridSize="10" guides="1" tooltips="1" connect="1" arrows="1" fold="1" page="1" pageScale="1" pageWidth="827" pageHeight="1169" math="0" shadow="0">
      <root>
        <mxCell id="0" />
        <mxCell id="1" parent="0" />
        <mxCell id="F4OIrp41KW45HxWefDBR-1" value="Host A" style="image;html=1;image=img/lib/clip_art/computers/Laptop_128x128.png" parent="1" vertex="1">
          <mxGeometry x="130" y="160" width="80" height="80" as="geometry" />
        </mxCell>
        <mxCell id="F4OIrp41KW45HxWefDBR-2" value="Host B" style="image;html=1;image=img/lib/clip_art/computers/Laptop_128x128.png" parent="1" vertex="1">
          <mxGeometry x="520" y="250" width="80" height="80" as="geometry" />
        </mxCell>
        <mxCell id="F4OIrp41KW45HxWefDBR-5" value="" style="shape=flexArrow;endArrow=classic;html=1;rounded=0;width=6.9230769230769225;endSize=3.0903846153846155;endWidth=7.899408284023669;" parent="1" edge="1">
          <mxGeometry width="50" height="50" relative="1" as="geometry">
            <mxPoint x="240" y="190" as="sourcePoint" />
            <mxPoint x="480" y="190" as="targetPoint" />
          </mxGeometry>
        </mxCell>
        <mxCell id="vHwtNzm70sl-cYUTQ73Y-57" value="OPER=1, SHA, SPA" style="edgeLabel;html=1;align=center;verticalAlign=middle;resizable=0;points=[];" vertex="1" connectable="0" parent="F4OIrp41KW45HxWefDBR-5">
          <mxGeometry x="-0.0726" y="-2" relative="1" as="geometry">
            <mxPoint x="9" y="-22" as="offset" />
          </mxGeometry>
        </mxCell>
        <mxCell id="F4OIrp41KW45HxWefDBR-7" value="Host C" style="image;html=1;image=img/lib/clip_art/computers/Laptop_128x128.png" parent="1" vertex="1">
          <mxGeometry x="520" y="150" width="80" height="80" as="geometry" />
        </mxCell>
        <mxCell id="F4OIrp41KW45HxWefDBR-8" value="Host D" style="image;html=1;image=img/lib/clip_art/computers/Laptop_128x128.png" parent="1" vertex="1">
          <mxGeometry x="520" y="50" width="80" height="80" as="geometry" />
        </mxCell>
        <mxCell id="vHwtNzm70sl-cYUTQ73Y-55" value="" style="group" vertex="1" connectable="0" parent="1">
          <mxGeometry x="160" y="400" width="360" height="230" as="geometry" />
        </mxCell>
        <mxCell id="vHwtNzm70sl-cYUTQ73Y-24" value="" style="endArrow=none;dashed=1;html=1;dashPattern=1 3;strokeWidth=2;rounded=0;" edge="1" parent="vHwtNzm70sl-cYUTQ73Y-55">
          <mxGeometry width="50" height="50" relative="1" as="geometry">
            <mxPoint x="20" y="230" as="sourcePoint" />
            <mxPoint x="20" y="20" as="targetPoint" />
          </mxGeometry>
        </mxCell>
        <mxCell id="vHwtNzm70sl-cYUTQ73Y-29" value="" style="endArrow=none;dashed=1;html=1;dashPattern=1 3;strokeWidth=2;rounded=0;" edge="1" parent="vHwtNzm70sl-cYUTQ73Y-55">
          <mxGeometry width="50" height="50" relative="1" as="geometry">
            <mxPoint x="340" y="230" as="sourcePoint" />
            <mxPoint x="340" y="20" as="targetPoint" />
          </mxGeometry>
        </mxCell>
        <mxCell id="vHwtNzm70sl-cYUTQ73Y-30" value="" style="endArrow=none;dashed=1;html=1;dashPattern=1 3;strokeWidth=2;rounded=0;" edge="1" parent="vHwtNzm70sl-cYUTQ73Y-55">
          <mxGeometry width="50" height="50" relative="1" as="geometry">
            <mxPoint x="100" y="230" as="sourcePoint" />
            <mxPoint x="100" y="20" as="targetPoint" />
          </mxGeometry>
        </mxCell>
        <mxCell id="vHwtNzm70sl-cYUTQ73Y-31" value="" style="endArrow=none;dashed=1;html=1;dashPattern=1 3;strokeWidth=2;rounded=0;" edge="1" parent="vHwtNzm70sl-cYUTQ73Y-55">
          <mxGeometry width="50" height="50" relative="1" as="geometry">
            <mxPoint x="180" y="230" as="sourcePoint" />
            <mxPoint x="180" y="20" as="targetPoint" />
          </mxGeometry>
        </mxCell>
        <mxCell id="vHwtNzm70sl-cYUTQ73Y-32" value="" style="endArrow=none;dashed=1;html=1;dashPattern=1 3;strokeWidth=2;rounded=0;" edge="1" parent="vHwtNzm70sl-cYUTQ73Y-55">
          <mxGeometry width="50" height="50" relative="1" as="geometry">
            <mxPoint x="260" y="230" as="sourcePoint" />
            <mxPoint x="260" y="20" as="targetPoint" />
          </mxGeometry>
        </mxCell>
        <mxCell id="vHwtNzm70sl-cYUTQ73Y-23" value="HTYPE" style="rounded=0;whiteSpace=wrap;html=1;fillColor=#60a917;fontColor=#ffffff;strokeColor=#2D7600;" vertex="1" parent="vHwtNzm70sl-cYUTQ73Y-55">
          <mxGeometry x="20" y="50" width="80" height="40" as="geometry" />
        </mxCell>
        <mxCell id="vHwtNzm70sl-cYUTQ73Y-25" value="PTYPE" style="rounded=0;whiteSpace=wrap;html=1;fillColor=#008a00;fontColor=#ffffff;strokeColor=#005700;" vertex="1" parent="vHwtNzm70sl-cYUTQ73Y-55">
          <mxGeometry x="100" y="50" width="80" height="40" as="geometry" />
        </mxCell>
        <mxCell id="vHwtNzm70sl-cYUTQ73Y-26" value="HLEN" style="rounded=0;whiteSpace=wrap;html=1;fillColor=#60a917;fontColor=#ffffff;strokeColor=#2D7600;" vertex="1" parent="vHwtNzm70sl-cYUTQ73Y-55">
          <mxGeometry x="180" y="50" width="40" height="40" as="geometry" />
        </mxCell>
        <mxCell id="vHwtNzm70sl-cYUTQ73Y-27" value="PLEN" style="rounded=0;whiteSpace=wrap;html=1;fillColor=#008a00;fontColor=#ffffff;strokeColor=#005700;" vertex="1" parent="vHwtNzm70sl-cYUTQ73Y-55">
          <mxGeometry x="220" y="50" width="40" height="40" as="geometry" />
        </mxCell>
        <mxCell id="vHwtNzm70sl-cYUTQ73Y-28" value="OPER" style="rounded=0;whiteSpace=wrap;html=1;fillColor=#60a917;fontColor=#ffffff;strokeColor=#2D7600;" vertex="1" parent="vHwtNzm70sl-cYUTQ73Y-55">
          <mxGeometry x="260" y="50" width="80" height="40" as="geometry" />
        </mxCell>
        <mxCell id="vHwtNzm70sl-cYUTQ73Y-33" value="0" style="text;html=1;align=center;verticalAlign=middle;whiteSpace=wrap;rounded=0;" vertex="1" parent="vHwtNzm70sl-cYUTQ73Y-55">
          <mxGeometry width="40" height="20" as="geometry" />
        </mxCell>
        <mxCell id="vHwtNzm70sl-cYUTQ73Y-34" value="2" style="text;html=1;align=center;verticalAlign=middle;whiteSpace=wrap;rounded=0;" vertex="1" parent="vHwtNzm70sl-cYUTQ73Y-55">
          <mxGeometry x="80" width="40" height="20" as="geometry" />
        </mxCell>
        <mxCell id="vHwtNzm70sl-cYUTQ73Y-35" value="4" style="text;html=1;align=center;verticalAlign=middle;whiteSpace=wrap;rounded=0;" vertex="1" parent="vHwtNzm70sl-cYUTQ73Y-55">
          <mxGeometry x="160" width="40" height="20" as="geometry" />
        </mxCell>
        <mxCell id="vHwtNzm70sl-cYUTQ73Y-36" value="6" style="text;html=1;align=center;verticalAlign=middle;whiteSpace=wrap;rounded=0;" vertex="1" parent="vHwtNzm70sl-cYUTQ73Y-55">
          <mxGeometry x="240" width="40" height="20" as="geometry" />
        </mxCell>
        <mxCell id="vHwtNzm70sl-cYUTQ73Y-37" value="8" style="text;html=1;align=center;verticalAlign=middle;whiteSpace=wrap;rounded=0;" vertex="1" parent="vHwtNzm70sl-cYUTQ73Y-55">
          <mxGeometry x="320" width="40" height="20" as="geometry" />
        </mxCell>
        <mxCell id="vHwtNzm70sl-cYUTQ73Y-38" value="SHA" style="rounded=0;whiteSpace=wrap;html=1;fillColor=#008a00;fontColor=#ffffff;strokeColor=#005700;" vertex="1" parent="vHwtNzm70sl-cYUTQ73Y-55">
          <mxGeometry x="20" y="90" width="240" height="40" as="geometry" />
        </mxCell>
        <mxCell id="vHwtNzm70sl-cYUTQ73Y-39" value="SPA" style="rounded=0;whiteSpace=wrap;html=1;fillColor=#60a917;fontColor=#ffffff;strokeColor=#2D7600;" vertex="1" parent="vHwtNzm70sl-cYUTQ73Y-55">
          <mxGeometry x="260" y="90" width="80" height="40" as="geometry" />
        </mxCell>
        <mxCell id="vHwtNzm70sl-cYUTQ73Y-40" value="SPA" style="rounded=0;whiteSpace=wrap;html=1;fillColor=#60a917;fontColor=#ffffff;strokeColor=#2D7600;" vertex="1" parent="vHwtNzm70sl-cYUTQ73Y-55">
          <mxGeometry x="20" y="130" width="80" height="40" as="geometry" />
        </mxCell>
        <mxCell id="vHwtNzm70sl-cYUTQ73Y-41" value="THA" style="rounded=0;whiteSpace=wrap;html=1;fillColor=#008a00;fontColor=#ffffff;strokeColor=#005700;" vertex="1" parent="vHwtNzm70sl-cYUTQ73Y-55">
          <mxGeometry x="100" y="130" width="240" height="40" as="geometry" />
        </mxCell>
        <mxCell id="vHwtNzm70sl-cYUTQ73Y-42" value="TPA" style="rounded=0;whiteSpace=wrap;html=1;fillColor=#60a917;fontColor=#ffffff;strokeColor=#2D7600;" vertex="1" parent="vHwtNzm70sl-cYUTQ73Y-55">
          <mxGeometry x="20" y="170" width="160" height="40" as="geometry" />
        </mxCell>
        <mxCell id="vHwtNzm70sl-cYUTQ73Y-58" value="" style="shape=flexArrow;endArrow=classic;html=1;rounded=0;width=6.9230769230769225;endSize=3.0903846153846155;endWidth=7.899408284023669;" edge="1" parent="1">
          <mxGeometry width="50" height="50" relative="1" as="geometry">
            <mxPoint x="480" y="240" as="sourcePoint" />
            <mxPoint x="240" y="240" as="targetPoint" />
          </mxGeometry>
        </mxCell>
        <mxCell id="vHwtNzm70sl-cYUTQ73Y-59" value="OPER=2, SHA, SPA, THA, TPA" style="edgeLabel;html=1;align=center;verticalAlign=middle;resizable=0;points=[];" vertex="1" connectable="0" parent="vHwtNzm70sl-cYUTQ73Y-58">
          <mxGeometry x="-0.0726" y="-2" relative="1" as="geometry">
            <mxPoint x="-9" y="-18" as="offset" />
          </mxGeometry>
        </mxCell>
      </root>
    </mxGraphModel>
  </diagram>
  <diagram id="6HqvHR2BMfoAu-n8QP1b" name="IPv4协议">
    <mxGraphModel dx="1434" dy="836" grid="1" gridSize="10" guides="1" tooltips="1" connect="1" arrows="1" fold="1" page="1" pageScale="1" pageWidth="827" pageHeight="1169" math="0" shadow="0">
      <root>
        <mxCell id="0" />
        <mxCell id="1" parent="0" />
        <mxCell id="qTzeoZIjayFiFP-GvcF3-41" value="" style="endArrow=none;dashed=1;html=1;rounded=0;strokeWidth=2;" parent="1" edge="1">
          <mxGeometry width="50" height="50" relative="1" as="geometry">
            <mxPoint x="80" y="360" as="sourcePoint" />
            <mxPoint x="80" y="40" as="targetPoint" />
          </mxGeometry>
        </mxCell>
        <mxCell id="qTzeoZIjayFiFP-GvcF3-25" value="Version" style="rounded=0;whiteSpace=wrap;html=1;fillColor=#6a00ff;fontColor=#ffffff;strokeColor=#3700CC;" parent="1" vertex="1">
          <mxGeometry x="80" y="90" width="80" height="40" as="geometry" />
        </mxCell>
        <mxCell id="qTzeoZIjayFiFP-GvcF3-26" value="IHL" style="rounded=0;whiteSpace=wrap;html=1;fillColor=#d80073;fontColor=#ffffff;strokeColor=#A50040;" parent="1" vertex="1">
          <mxGeometry x="160" y="90" width="80" height="40" as="geometry" />
        </mxCell>
        <mxCell id="qTzeoZIjayFiFP-GvcF3-27" value="TOS" style="rounded=0;whiteSpace=wrap;html=1;fillColor=#6a00ff;fontColor=#ffffff;strokeColor=#3700CC;" parent="1" vertex="1">
          <mxGeometry x="240" y="90" width="160" height="40" as="geometry" />
        </mxCell>
        <mxCell id="qTzeoZIjayFiFP-GvcF3-29" value="Total Length" style="rounded=0;whiteSpace=wrap;html=1;fillColor=#0050ef;fontColor=#ffffff;strokeColor=#001DBC;" parent="1" vertex="1">
          <mxGeometry x="400" y="90" width="320" height="40" as="geometry" />
        </mxCell>
        <mxCell id="qTzeoZIjayFiFP-GvcF3-30" value="Identification" style="rounded=0;whiteSpace=wrap;html=1;fillColor=#1ba1e2;fontColor=#ffffff;strokeColor=#006EAF;" parent="1" vertex="1">
          <mxGeometry x="80" y="130" width="320" height="40" as="geometry" />
        </mxCell>
        <mxCell id="qTzeoZIjayFiFP-GvcF3-31" value="Flag" style="rounded=0;whiteSpace=wrap;html=1;fillColor=#008a00;fontColor=#ffffff;strokeColor=#005700;" parent="1" vertex="1">
          <mxGeometry x="400" y="130" width="80" height="40" as="geometry" />
        </mxCell>
        <mxCell id="qTzeoZIjayFiFP-GvcF3-32" value="Fragment Offset" style="rounded=0;whiteSpace=wrap;html=1;fillColor=#1ba1e2;fontColor=#ffffff;strokeColor=#006EAF;" parent="1" vertex="1">
          <mxGeometry x="480" y="130" width="240" height="40" as="geometry" />
        </mxCell>
        <mxCell id="qTzeoZIjayFiFP-GvcF3-33" value="TTL" style="rounded=0;whiteSpace=wrap;html=1;fillColor=#0050ef;fontColor=#ffffff;strokeColor=#001DBC;" parent="1" vertex="1">
          <mxGeometry x="80" y="170" width="160" height="40" as="geometry" />
        </mxCell>
        <mxCell id="qTzeoZIjayFiFP-GvcF3-34" value="Protocol" style="rounded=0;whiteSpace=wrap;html=1;fillColor=#6a00ff;fontColor=#ffffff;strokeColor=#3700CC;" parent="1" vertex="1">
          <mxGeometry x="240" y="170" width="160" height="40" as="geometry" />
        </mxCell>
        <mxCell id="qTzeoZIjayFiFP-GvcF3-35" value="Checksum" style="rounded=0;whiteSpace=wrap;html=1;fillColor=#d80073;fontColor=#ffffff;strokeColor=#A50040;" parent="1" vertex="1">
          <mxGeometry x="400" y="170" width="320" height="40" as="geometry" />
        </mxCell>
        <mxCell id="qTzeoZIjayFiFP-GvcF3-36" value="Source Address" style="rounded=0;whiteSpace=wrap;html=1;fillColor=#1ba1e2;fontColor=#ffffff;strokeColor=#006EAF;" parent="1" vertex="1">
          <mxGeometry x="80" y="210" width="640" height="40" as="geometry" />
        </mxCell>
        <mxCell id="qTzeoZIjayFiFP-GvcF3-37" value="Target Address" style="rounded=0;whiteSpace=wrap;html=1;fillColor=#0050ef;fontColor=#ffffff;strokeColor=#001DBC;" parent="1" vertex="1">
          <mxGeometry x="80" y="250" width="640" height="40" as="geometry" />
        </mxCell>
        <mxCell id="qTzeoZIjayFiFP-GvcF3-38" value="&lt;b&gt;Options&lt;/b&gt;&amp;nbsp; &amp;nbsp; &amp;nbsp; &amp;nbsp; &amp;nbsp; &amp;nbsp; &amp;nbsp; &amp;nbsp; &amp;nbsp; &amp;nbsp; &amp;nbsp; &amp;nbsp; &amp;nbsp; &amp;nbsp; &amp;nbsp; &amp;nbsp; &amp;nbsp; &amp;nbsp; &amp;nbsp; &amp;nbsp; &amp;nbsp; &amp;nbsp; &amp;nbsp; &amp;nbsp; &amp;nbsp; &amp;nbsp; &amp;nbsp; &amp;nbsp; &amp;nbsp; &amp;nbsp; &amp;nbsp; &amp;nbsp; &amp;nbsp; &amp;nbsp; &amp;nbsp; &amp;nbsp; &amp;nbsp; &amp;nbsp; &amp;nbsp; &amp;nbsp; &amp;nbsp; &amp;nbsp; &amp;nbsp; &amp;nbsp; &amp;nbsp; &amp;nbsp; &amp;nbsp; &amp;nbsp; &amp;nbsp; &amp;nbsp; &amp;nbsp; &amp;nbsp; &amp;nbsp; &amp;nbsp; &amp;nbsp; &amp;nbsp; &amp;nbsp; &amp;nbsp; &amp;nbsp; &amp;nbsp; &amp;nbsp; &amp;nbsp; &amp;nbsp; &amp;nbsp; &amp;nbsp; &amp;nbsp; &amp;nbsp; &amp;nbsp; &amp;nbsp; &amp;nbsp; &amp;nbsp; &amp;nbsp; &amp;nbsp; &amp;nbsp; &amp;nbsp; &amp;nbsp; &amp;nbsp;&lt;b style=&quot;&quot;&gt;&lt;font color=&quot;#ffffff&quot;&gt;Padding&lt;/font&gt;&lt;/b&gt;" style="rounded=0;whiteSpace=wrap;html=1;gradientColor=#006CD9;gradientDirection=east;fillColor=#000033;" parent="1" vertex="1">
          <mxGeometry x="80" y="290" width="640" height="40" as="geometry" />
        </mxCell>
        <mxCell id="qTzeoZIjayFiFP-GvcF3-42" value="0" style="text;html=1;align=center;verticalAlign=middle;whiteSpace=wrap;rounded=0;" parent="1" vertex="1">
          <mxGeometry x="60" y="10" width="40" height="30" as="geometry" />
        </mxCell>
        <mxCell id="qTzeoZIjayFiFP-GvcF3-43" value="" style="endArrow=none;dashed=1;html=1;rounded=0;strokeWidth=2;" parent="1" edge="1">
          <mxGeometry width="50" height="50" relative="1" as="geometry">
            <mxPoint x="160" y="360" as="sourcePoint" />
            <mxPoint x="160" y="40" as="targetPoint" />
          </mxGeometry>
        </mxCell>
        <mxCell id="qTzeoZIjayFiFP-GvcF3-44" value="4 bits" style="text;html=1;align=center;verticalAlign=middle;whiteSpace=wrap;rounded=0;" parent="1" vertex="1">
          <mxGeometry x="140" y="10" width="40" height="30" as="geometry" />
        </mxCell>
        <mxCell id="qTzeoZIjayFiFP-GvcF3-45" value="" style="endArrow=none;dashed=1;html=1;rounded=0;strokeWidth=2;" parent="1" edge="1">
          <mxGeometry width="50" height="50" relative="1" as="geometry">
            <mxPoint x="240" y="360" as="sourcePoint" />
            <mxPoint x="240" y="40" as="targetPoint" />
          </mxGeometry>
        </mxCell>
        <mxCell id="qTzeoZIjayFiFP-GvcF3-46" value="1 byte" style="text;html=1;align=center;verticalAlign=middle;whiteSpace=wrap;rounded=0;" parent="1" vertex="1">
          <mxGeometry x="215" y="10" width="50" height="30" as="geometry" />
        </mxCell>
        <mxCell id="qTzeoZIjayFiFP-GvcF3-47" value="" style="endArrow=none;dashed=1;html=1;rounded=0;strokeWidth=2;" parent="1" edge="1">
          <mxGeometry width="50" height="50" relative="1" as="geometry">
            <mxPoint x="400" y="360" as="sourcePoint" />
            <mxPoint x="400" y="40" as="targetPoint" />
          </mxGeometry>
        </mxCell>
        <mxCell id="qTzeoZIjayFiFP-GvcF3-48" value="2 bytes" style="text;html=1;align=center;verticalAlign=middle;whiteSpace=wrap;rounded=0;" parent="1" vertex="1">
          <mxGeometry x="375" y="10" width="50" height="30" as="geometry" />
        </mxCell>
        <mxCell id="qTzeoZIjayFiFP-GvcF3-49" value="" style="endArrow=none;dashed=1;html=1;rounded=0;strokeWidth=2;" parent="1" edge="1">
          <mxGeometry width="50" height="50" relative="1" as="geometry">
            <mxPoint x="720" y="360" as="sourcePoint" />
            <mxPoint x="720" y="40" as="targetPoint" />
          </mxGeometry>
        </mxCell>
        <mxCell id="qTzeoZIjayFiFP-GvcF3-50" value="4 bytes" style="text;html=1;align=center;verticalAlign=middle;whiteSpace=wrap;rounded=0;" parent="1" vertex="1">
          <mxGeometry x="690" y="10" width="50" height="30" as="geometry" />
        </mxCell>
        <mxCell id="qTzeoZIjayFiFP-GvcF3-51" value="" style="endArrow=none;dashed=1;html=1;rounded=0;strokeWidth=2;" parent="1" edge="1">
          <mxGeometry width="50" height="50" relative="1" as="geometry">
            <mxPoint x="480" y="360" as="sourcePoint" />
            <mxPoint x="480" y="40" as="targetPoint" />
          </mxGeometry>
        </mxCell>
        <mxCell id="qTzeoZIjayFiFP-GvcF3-52" value="11 bits" style="text;html=1;align=center;verticalAlign=middle;whiteSpace=wrap;rounded=0;" parent="1" vertex="1">
          <mxGeometry x="450" y="10" width="60" height="30" as="geometry" />
        </mxCell>
      </root>
    </mxGraphModel>
  </diagram>
  <diagram id="ppZCpn8RaCfVd6_uvGWw" name="数据包分片">
    <mxGraphModel dx="1195" dy="697" grid="1" gridSize="10" guides="1" tooltips="1" connect="1" arrows="1" fold="1" page="1" pageScale="1" pageWidth="827" pageHeight="1169" math="0" shadow="0">
      <root>
        <mxCell id="0" />
        <mxCell id="1" parent="0" />
        <mxCell id="VnhoodbNtXEFMnyhZKlu-5" value="假设MTU为1500字节，IPv4首部为20字节，最大数据部分为1480字节。如果发送一个4000字节的数据报：" style="shape=note;whiteSpace=wrap;html=1;backgroundOutline=1;darkOpacity=0.05;size=13;spacingLeft=20;spacingRight=20;fillColor=#f0a30a;fontColor=#000000;strokeColor=#BD7000;" vertex="1" parent="1">
          <mxGeometry x="84" y="50" width="660" height="50" as="geometry" />
        </mxCell>
        <mxCell id="VnhoodbNtXEFMnyhZKlu-20" value="" style="group" vertex="1" connectable="0" parent="1">
          <mxGeometry x="305" y="130" width="190" height="60" as="geometry" />
        </mxCell>
        <mxCell id="VnhoodbNtXEFMnyhZKlu-21" value="IPv4(4000 + 20 = 4020 bytes)" style="rounded=0;whiteSpace=wrap;html=1;fillColor=#a20025;fontColor=#ffffff;strokeColor=#6F0000;" vertex="1" parent="VnhoodbNtXEFMnyhZKlu-20">
          <mxGeometry width="190" height="30" as="geometry" />
        </mxCell>
        <mxCell id="VnhoodbNtXEFMnyhZKlu-22" value="Flag" style="rounded=0;whiteSpace=wrap;html=1;fillColor=#6a00ff;fontColor=#ffffff;strokeColor=#3700CC;" vertex="1" parent="VnhoodbNtXEFMnyhZKlu-20">
          <mxGeometry y="30" width="60" height="30" as="geometry" />
        </mxCell>
        <mxCell id="VnhoodbNtXEFMnyhZKlu-23" value="Fragment Offset" style="rounded=0;whiteSpace=wrap;html=1;fillColor=#d80073;fontColor=#ffffff;strokeColor=#A50040;" vertex="1" parent="VnhoodbNtXEFMnyhZKlu-20">
          <mxGeometry x="60" y="30" width="130" height="30" as="geometry" />
        </mxCell>
        <mxCell id="VnhoodbNtXEFMnyhZKlu-25" value="" style="group" vertex="1" connectable="0" parent="1">
          <mxGeometry x="50" y="270" width="700" height="130" as="geometry" />
        </mxCell>
        <mxCell id="VnhoodbNtXEFMnyhZKlu-24" value="" style="rounded=0;whiteSpace=wrap;html=1;" vertex="1" parent="VnhoodbNtXEFMnyhZKlu-25">
          <mxGeometry width="700" height="130" as="geometry" />
        </mxCell>
        <mxCell id="VnhoodbNtXEFMnyhZKlu-4" value="" style="group" vertex="1" connectable="0" parent="VnhoodbNtXEFMnyhZKlu-25">
          <mxGeometry x="20" y="40" width="190" height="80" as="geometry" />
        </mxCell>
        <mxCell id="VnhoodbNtXEFMnyhZKlu-1" value="IPv4(1460 + 20 = 1480 bytes)" style="rounded=0;whiteSpace=wrap;html=1;fillColor=#a20025;fontColor=#ffffff;strokeColor=#6F0000;" vertex="1" parent="VnhoodbNtXEFMnyhZKlu-4">
          <mxGeometry width="190" height="30" as="geometry" />
        </mxCell>
        <mxCell id="VnhoodbNtXEFMnyhZKlu-2" value="Flag&lt;div&gt;(0b011)&lt;/div&gt;" style="rounded=0;whiteSpace=wrap;html=1;fillColor=#6a00ff;fontColor=#ffffff;strokeColor=#3700CC;" vertex="1" parent="VnhoodbNtXEFMnyhZKlu-4">
          <mxGeometry y="30" width="60" height="50" as="geometry" />
        </mxCell>
        <mxCell id="VnhoodbNtXEFMnyhZKlu-3" value="Fragment Offset&lt;div&gt;(0)&lt;/div&gt;" style="rounded=0;whiteSpace=wrap;html=1;fillColor=#d80073;fontColor=#ffffff;strokeColor=#A50040;" vertex="1" parent="VnhoodbNtXEFMnyhZKlu-4">
          <mxGeometry x="60" y="30" width="130" height="50" as="geometry" />
        </mxCell>
        <mxCell id="VnhoodbNtXEFMnyhZKlu-6" value="" style="group" vertex="1" connectable="0" parent="VnhoodbNtXEFMnyhZKlu-25">
          <mxGeometry x="255" y="40" width="190" height="80" as="geometry" />
        </mxCell>
        <mxCell id="VnhoodbNtXEFMnyhZKlu-7" value="IPv4(1460 + 20 = 1480 bytes)" style="rounded=0;whiteSpace=wrap;html=1;fillColor=#a20025;fontColor=#ffffff;strokeColor=#6F0000;" vertex="1" parent="VnhoodbNtXEFMnyhZKlu-6">
          <mxGeometry width="190" height="30" as="geometry" />
        </mxCell>
        <mxCell id="VnhoodbNtXEFMnyhZKlu-8" value="Flag&lt;div&gt;(0b011)&lt;/div&gt;" style="rounded=0;whiteSpace=wrap;html=1;fillColor=#6a00ff;fontColor=#ffffff;strokeColor=#3700CC;" vertex="1" parent="VnhoodbNtXEFMnyhZKlu-6">
          <mxGeometry y="30" width="60" height="50" as="geometry" />
        </mxCell>
        <mxCell id="VnhoodbNtXEFMnyhZKlu-9" value="Fragment Offset&lt;div&gt;(1460 ÷ 8 = 185)&lt;/div&gt;" style="rounded=0;whiteSpace=wrap;html=1;fillColor=#d80073;fontColor=#ffffff;strokeColor=#A50040;" vertex="1" parent="VnhoodbNtXEFMnyhZKlu-6">
          <mxGeometry x="60" y="30" width="130" height="50" as="geometry" />
        </mxCell>
        <mxCell id="VnhoodbNtXEFMnyhZKlu-10" value="" style="group" vertex="1" connectable="0" parent="VnhoodbNtXEFMnyhZKlu-25">
          <mxGeometry x="490" y="40" width="190" height="80" as="geometry" />
        </mxCell>
        <mxCell id="VnhoodbNtXEFMnyhZKlu-11" value="IPv4(1080 + 20 = 1100 bytes)" style="rounded=0;whiteSpace=wrap;html=1;fillColor=#a20025;fontColor=#ffffff;strokeColor=#6F0000;" vertex="1" parent="VnhoodbNtXEFMnyhZKlu-10">
          <mxGeometry width="190" height="30" as="geometry" />
        </mxCell>
        <mxCell id="VnhoodbNtXEFMnyhZKlu-12" value="Flag&lt;div&gt;(0b011)&lt;/div&gt;" style="rounded=0;whiteSpace=wrap;html=1;fillColor=#6a00ff;fontColor=#ffffff;strokeColor=#3700CC;" vertex="1" parent="VnhoodbNtXEFMnyhZKlu-10">
          <mxGeometry y="30" width="60" height="50" as="geometry" />
        </mxCell>
        <mxCell id="VnhoodbNtXEFMnyhZKlu-13" value="Fragment Offset&lt;div&gt;(2920 ÷ 8 = 370)&lt;/div&gt;" style="rounded=0;whiteSpace=wrap;html=1;fillColor=#d80073;fontColor=#ffffff;strokeColor=#A50040;" vertex="1" parent="VnhoodbNtXEFMnyhZKlu-10">
          <mxGeometry x="60" y="30" width="130" height="50" as="geometry" />
        </mxCell>
        <mxCell id="VnhoodbNtXEFMnyhZKlu-15" style="edgeStyle=orthogonalEdgeStyle;rounded=0;orthogonalLoop=1;jettySize=auto;html=1;entryX=0;entryY=0.5;entryDx=0;entryDy=0;" edge="1" parent="VnhoodbNtXEFMnyhZKlu-25" source="VnhoodbNtXEFMnyhZKlu-1" target="VnhoodbNtXEFMnyhZKlu-7">
          <mxGeometry relative="1" as="geometry" />
        </mxCell>
        <mxCell id="VnhoodbNtXEFMnyhZKlu-16" style="edgeStyle=orthogonalEdgeStyle;rounded=0;orthogonalLoop=1;jettySize=auto;html=1;entryX=0;entryY=0.5;entryDx=0;entryDy=0;" edge="1" parent="VnhoodbNtXEFMnyhZKlu-25" source="VnhoodbNtXEFMnyhZKlu-7" target="VnhoodbNtXEFMnyhZKlu-11">
          <mxGeometry relative="1" as="geometry" />
        </mxCell>
        <mxCell id="VnhoodbNtXEFMnyhZKlu-17" value="剩余 4000 bytes" style="text;html=1;align=center;verticalAlign=middle;whiteSpace=wrap;rounded=0;" vertex="1" parent="VnhoodbNtXEFMnyhZKlu-25">
          <mxGeometry x="23" y="10" width="184" height="30" as="geometry" />
        </mxCell>
        <mxCell id="VnhoodbNtXEFMnyhZKlu-18" value="剩余 2540 bytes" style="text;html=1;align=center;verticalAlign=middle;whiteSpace=wrap;rounded=0;" vertex="1" parent="VnhoodbNtXEFMnyhZKlu-25">
          <mxGeometry x="256" y="10" width="184" height="30" as="geometry" />
        </mxCell>
        <mxCell id="VnhoodbNtXEFMnyhZKlu-19" value="剩余 1080 bytes" style="text;html=1;align=center;verticalAlign=middle;whiteSpace=wrap;rounded=0;" vertex="1" parent="VnhoodbNtXEFMnyhZKlu-25">
          <mxGeometry x="493" y="10" width="184" height="30" as="geometry" />
        </mxCell>
        <mxCell id="VnhoodbNtXEFMnyhZKlu-26" value="" style="shape=flexArrow;endArrow=classic;html=1;rounded=0;width=6.857142857142857;endSize=4.382857142857143;endWidth=15.510204081632653;" edge="1" parent="1">
          <mxGeometry width="50" height="50" relative="1" as="geometry">
            <mxPoint x="399.71" y="210" as="sourcePoint" />
            <mxPoint x="399.71" y="260" as="targetPoint" />
          </mxGeometry>
        </mxCell>
      </root>
    </mxGraphModel>
  </diagram>
  <diagram id="d8-Lq6JUjh5uCsnZHhfL" name="ICMP协议">
    <mxGraphModel dx="683" dy="398" grid="1" gridSize="10" guides="1" tooltips="1" connect="1" arrows="1" fold="1" page="1" pageScale="1" pageWidth="827" pageHeight="1169" math="0" shadow="0">
      <root>
        <mxCell id="0" />
        <mxCell id="1" parent="0" />
        <mxCell id="CP_JCproWHizLy70yAvP-8" value="" style="endArrow=none;dashed=1;html=1;rounded=0;" edge="1" parent="1">
          <mxGeometry width="50" height="50" relative="1" as="geometry">
            <mxPoint x="200" y="280" as="sourcePoint" />
            <mxPoint x="600" y="280" as="targetPoint" />
          </mxGeometry>
        </mxCell>
        <mxCell id="CP_JCproWHizLy70yAvP-13" value="" style="endArrow=none;dashed=1;html=1;rounded=0;" edge="1" parent="1">
          <mxGeometry width="50" height="50" relative="1" as="geometry">
            <mxPoint x="320" y="200" as="sourcePoint" />
            <mxPoint x="320" y="360" as="targetPoint" />
          </mxGeometry>
        </mxCell>
        <mxCell id="CP_JCproWHizLy70yAvP-14" value="" style="endArrow=none;dashed=1;html=1;rounded=0;" edge="1" parent="1">
          <mxGeometry width="50" height="50" relative="1" as="geometry">
            <mxPoint x="400" y="200" as="sourcePoint" />
            <mxPoint x="400" y="360" as="targetPoint" />
          </mxGeometry>
        </mxCell>
        <mxCell id="CP_JCproWHizLy70yAvP-15" value="" style="endArrow=none;dashed=1;html=1;rounded=0;" edge="1" parent="1">
          <mxGeometry width="50" height="50" relative="1" as="geometry">
            <mxPoint x="560" y="200" as="sourcePoint" />
            <mxPoint x="560" y="360" as="targetPoint" />
          </mxGeometry>
        </mxCell>
        <mxCell id="CP_JCproWHizLy70yAvP-1" value="IP Header" style="rounded=0;whiteSpace=wrap;html=1;fillColor=#a20025;fontColor=#ffffff;strokeColor=#6F0000;" vertex="1" parent="1">
          <mxGeometry x="240" y="240" width="320" height="40" as="geometry" />
        </mxCell>
        <mxCell id="CP_JCproWHizLy70yAvP-2" value="Type" style="rounded=0;whiteSpace=wrap;html=1;fillColor=#1ba1e2;fontColor=#ffffff;strokeColor=#006EAF;" vertex="1" parent="1">
          <mxGeometry x="240" y="280" width="80" height="40" as="geometry" />
        </mxCell>
        <mxCell id="CP_JCproWHizLy70yAvP-3" value="Code" style="rounded=0;whiteSpace=wrap;html=1;fillColor=#0050ef;fontColor=#ffffff;strokeColor=#001DBC;" vertex="1" parent="1">
          <mxGeometry x="320" y="280" width="80" height="40" as="geometry" />
        </mxCell>
        <mxCell id="CP_JCproWHizLy70yAvP-4" value="Checksum" style="rounded=0;whiteSpace=wrap;html=1;fillColor=#6a00ff;fontColor=#ffffff;strokeColor=#3700CC;" vertex="1" parent="1">
          <mxGeometry x="400" y="280" width="160" height="40" as="geometry" />
        </mxCell>
        <mxCell id="CP_JCproWHizLy70yAvP-16" value="1 bytes" style="text;html=1;align=center;verticalAlign=middle;whiteSpace=wrap;rounded=0;" vertex="1" parent="1">
          <mxGeometry x="290" y="180" width="60" height="20" as="geometry" />
        </mxCell>
        <mxCell id="CP_JCproWHizLy70yAvP-17" value="2 bytes" style="text;html=1;align=center;verticalAlign=middle;whiteSpace=wrap;rounded=0;" vertex="1" parent="1">
          <mxGeometry x="370" y="180" width="60" height="20" as="geometry" />
        </mxCell>
        <mxCell id="CP_JCproWHizLy70yAvP-18" value="4 bytes" style="text;html=1;align=center;verticalAlign=middle;whiteSpace=wrap;rounded=0;" vertex="1" parent="1">
          <mxGeometry x="530" y="180" width="60" height="20" as="geometry" />
        </mxCell>
        <mxCell id="lbX5tqI8Zx5j0B4r1TCd-1" value="20 bytes" style="text;html=1;align=center;verticalAlign=middle;whiteSpace=wrap;rounded=0;" vertex="1" parent="1">
          <mxGeometry x="570" y="260" width="60" height="20" as="geometry" />
        </mxCell>
      </root>
    </mxGraphModel>
  </diagram>
  <diagram id="Ajpx2KKwwdljz3bkhYnW" name="协议栈">
    <mxGraphModel dx="1304" dy="760" grid="1" gridSize="10" guides="1" tooltips="1" connect="1" arrows="1" fold="1" page="1" pageScale="1" pageWidth="827" pageHeight="1169" math="0" shadow="0">
      <root>
        <mxCell id="0" />
        <mxCell id="1" parent="0" />
        <mxCell id="0OdUJ_X-ruLMUODwXzn7-95" value="" style="group" vertex="1" connectable="0" parent="1">
          <mxGeometry x="850" y="890" width="170" height="60" as="geometry" />
        </mxCell>
        <mxCell id="0OdUJ_X-ruLMUODwXzn7-118" value="" style="rounded=0;whiteSpace=wrap;html=1;" vertex="1" parent="0OdUJ_X-ruLMUODwXzn7-95">
          <mxGeometry width="170" height="60" as="geometry" />
        </mxCell>
        <mxCell id="0OdUJ_X-ruLMUODwXzn7-96" value="HTTP" style="rounded=0;whiteSpace=wrap;html=1;fillColor=#3D0021;fontColor=#ffffff;strokeColor=#A50040;" vertex="1" parent="0OdUJ_X-ruLMUODwXzn7-95">
          <mxGeometry x="127.5" width="42.5" height="30" as="geometry" />
        </mxCell>
        <mxCell id="0OdUJ_X-ruLMUODwXzn7-97" value="TCP" style="rounded=0;whiteSpace=wrap;html=1;fillColor=#54002D;fontColor=#ffffff;strokeColor=#A50040;" vertex="1" parent="0OdUJ_X-ruLMUODwXzn7-95">
          <mxGeometry x="85" width="42.5" height="30" as="geometry" />
        </mxCell>
        <mxCell id="0OdUJ_X-ruLMUODwXzn7-98" value="IP" style="rounded=0;whiteSpace=wrap;html=1;fillColor=#820045;fontColor=#ffffff;strokeColor=#A50040;" vertex="1" parent="0OdUJ_X-ruLMUODwXzn7-95">
          <mxGeometry x="42.5" width="42.5" height="30" as="geometry" />
        </mxCell>
        <mxCell id="0OdUJ_X-ruLMUODwXzn7-99" value="ETH II" style="rounded=0;whiteSpace=wrap;html=1;fillColor=#d80073;fontColor=#ffffff;strokeColor=#A50040;" vertex="1" parent="0OdUJ_X-ruLMUODwXzn7-95">
          <mxGeometry width="42.5" height="30" as="geometry" />
        </mxCell>
        <mxCell id="0OdUJ_X-ruLMUODwXzn7-100" value="DATA" style="rounded=0;whiteSpace=wrap;html=1;fillColor=#210012;fontColor=#ffffff;strokeColor=#A50040;" vertex="1" parent="0OdUJ_X-ruLMUODwXzn7-95">
          <mxGeometry y="30" width="170" height="30" as="geometry" />
        </mxCell>
        <mxCell id="0OdUJ_X-ruLMUODwXzn7-101" value="" style="group" vertex="1" connectable="0" parent="1">
          <mxGeometry x="850" y="750" width="170" height="60" as="geometry" />
        </mxCell>
        <mxCell id="0OdUJ_X-ruLMUODwXzn7-102" value="HTTP" style="rounded=0;whiteSpace=wrap;html=1;fillColor=#3D0021;fontColor=#ffffff;strokeColor=#A50040;" vertex="1" parent="0OdUJ_X-ruLMUODwXzn7-101">
          <mxGeometry x="127.5" width="42.5" height="30" as="geometry" />
        </mxCell>
        <mxCell id="0OdUJ_X-ruLMUODwXzn7-103" value="TCP" style="rounded=0;whiteSpace=wrap;html=1;fillColor=#54002D;fontColor=#ffffff;strokeColor=#A50040;" vertex="1" parent="0OdUJ_X-ruLMUODwXzn7-101">
          <mxGeometry x="60" width="67.5" height="30" as="geometry" />
        </mxCell>
        <mxCell id="0OdUJ_X-ruLMUODwXzn7-104" value="IP" style="rounded=0;whiteSpace=wrap;html=1;fillColor=#820045;fontColor=#ffffff;strokeColor=#A50040;" vertex="1" parent="0OdUJ_X-ruLMUODwXzn7-101">
          <mxGeometry width="65" height="30" as="geometry" />
        </mxCell>
        <mxCell id="0OdUJ_X-ruLMUODwXzn7-105" value="DATA" style="rounded=0;whiteSpace=wrap;html=1;fillColor=#210012;fontColor=#ffffff;strokeColor=#A50040;" vertex="1" parent="0OdUJ_X-ruLMUODwXzn7-101">
          <mxGeometry y="30" width="170" height="30" as="geometry" />
        </mxCell>
        <mxCell id="0OdUJ_X-ruLMUODwXzn7-120" value="" style="group" vertex="1" connectable="0" parent="0OdUJ_X-ruLMUODwXzn7-101">
          <mxGeometry width="170" height="60" as="geometry" />
        </mxCell>
        <mxCell id="0OdUJ_X-ruLMUODwXzn7-126" value="" style="rounded=0;whiteSpace=wrap;html=1;" vertex="1" parent="0OdUJ_X-ruLMUODwXzn7-120">
          <mxGeometry width="170" height="60" as="geometry" />
        </mxCell>
        <mxCell id="0OdUJ_X-ruLMUODwXzn7-121" value="HTTP" style="rounded=0;whiteSpace=wrap;html=1;fillColor=#3D0021;fontColor=#ffffff;strokeColor=#A50040;" vertex="1" parent="0OdUJ_X-ruLMUODwXzn7-120">
          <mxGeometry x="127.5" width="42.5" height="30" as="geometry" />
        </mxCell>
        <mxCell id="0OdUJ_X-ruLMUODwXzn7-122" value="TCP" style="rounded=0;whiteSpace=wrap;html=1;fillColor=#54002D;fontColor=#ffffff;strokeColor=#A50040;" vertex="1" parent="0OdUJ_X-ruLMUODwXzn7-120">
          <mxGeometry x="60" width="67.5" height="30" as="geometry" />
        </mxCell>
        <mxCell id="0OdUJ_X-ruLMUODwXzn7-123" value="IP" style="rounded=0;whiteSpace=wrap;html=1;fillColor=#820045;fontColor=#ffffff;strokeColor=#A50040;" vertex="1" parent="0OdUJ_X-ruLMUODwXzn7-120">
          <mxGeometry width="65" height="30" as="geometry" />
        </mxCell>
        <mxCell id="0OdUJ_X-ruLMUODwXzn7-125" value="DATA" style="rounded=0;whiteSpace=wrap;html=1;fillColor=#210012;fontColor=#ffffff;strokeColor=#A50040;" vertex="1" parent="0OdUJ_X-ruLMUODwXzn7-120">
          <mxGeometry y="30" width="170" height="30" as="geometry" />
        </mxCell>
        <mxCell id="0OdUJ_X-ruLMUODwXzn7-111" value="" style="group" vertex="1" connectable="0" parent="1">
          <mxGeometry x="850" y="630" width="170" height="60" as="geometry" />
        </mxCell>
        <mxCell id="0OdUJ_X-ruLMUODwXzn7-112" value="HTTP" style="rounded=0;whiteSpace=wrap;html=1;fillColor=#3D0021;fontColor=#ffffff;strokeColor=#A50040;" vertex="1" parent="0OdUJ_X-ruLMUODwXzn7-111">
          <mxGeometry x="90" width="80" height="30" as="geometry" />
        </mxCell>
        <mxCell id="0OdUJ_X-ruLMUODwXzn7-113" value="TCP" style="rounded=0;whiteSpace=wrap;html=1;fillColor=#54002D;fontColor=#ffffff;strokeColor=#A50040;" vertex="1" parent="0OdUJ_X-ruLMUODwXzn7-111">
          <mxGeometry width="90" height="30" as="geometry" />
        </mxCell>
        <mxCell id="0OdUJ_X-ruLMUODwXzn7-114" value="DATA" style="rounded=0;whiteSpace=wrap;html=1;fillColor=#210012;fontColor=#ffffff;strokeColor=#A50040;" vertex="1" parent="0OdUJ_X-ruLMUODwXzn7-111">
          <mxGeometry y="30" width="170" height="30" as="geometry" />
        </mxCell>
        <mxCell id="0OdUJ_X-ruLMUODwXzn7-1" value="" style="group" vertex="1" connectable="0" parent="1">
          <mxGeometry x="373.3333333333333" y="216" width="226.67" height="888.3898305084746" as="geometry" />
        </mxCell>
        <mxCell id="0OdUJ_X-ruLMUODwXzn7-2" value="物理层" style="rounded=0;whiteSpace=wrap;html=1;fontSize=18;fillColor=#001933;strokeColor=#000033;" vertex="1" parent="0OdUJ_X-ruLMUODwXzn7-1">
          <mxGeometry y="761.48" width="226.67" height="38.52" as="geometry" />
        </mxCell>
        <mxCell id="0OdUJ_X-ruLMUODwXzn7-3" value="数据链路层" style="rounded=0;whiteSpace=wrap;html=1;fontSize=18;fillColor=#003366;strokeColor=#000033;" vertex="1" parent="0OdUJ_X-ruLMUODwXzn7-1">
          <mxGeometry y="634.5641646489105" width="226.66666666666666" height="126.91283292978208" as="geometry" />
        </mxCell>
        <mxCell id="0OdUJ_X-ruLMUODwXzn7-4" value="网络层" style="rounded=0;whiteSpace=wrap;html=1;fontSize=18;fillColor=#004C99;strokeColor=#000033;" vertex="1" parent="0OdUJ_X-ruLMUODwXzn7-1">
          <mxGeometry y="507.65133171912834" width="226.66666666666666" height="126.91283292978208" as="geometry" />
        </mxCell>
        <mxCell id="0OdUJ_X-ruLMUODwXzn7-5" value="传输层" style="rounded=0;whiteSpace=wrap;html=1;fontSize=18;fillColor=#0066CC;strokeColor=#000033;" vertex="1" parent="0OdUJ_X-ruLMUODwXzn7-1">
          <mxGeometry y="380.73849878934624" width="226.66666666666666" height="126.91283292978208" as="geometry" />
        </mxCell>
        <mxCell id="0OdUJ_X-ruLMUODwXzn7-6" value="会话层" style="rounded=0;whiteSpace=wrap;html=1;fontSize=18;fillColor=#007FFF;strokeColor=#000033;" vertex="1" parent="0OdUJ_X-ruLMUODwXzn7-1">
          <mxGeometry y="320" width="226.67" height="60.74" as="geometry" />
        </mxCell>
        <mxCell id="0OdUJ_X-ruLMUODwXzn7-7" value="表示层" style="rounded=0;whiteSpace=wrap;html=1;fontSize=18;fillColor=#3399FF;strokeColor=#000033;" vertex="1" parent="0OdUJ_X-ruLMUODwXzn7-1">
          <mxGeometry y="274" width="226.67" height="53.83" as="geometry" />
        </mxCell>
        <mxCell id="0OdUJ_X-ruLMUODwXzn7-8" value="应用层" style="rounded=0;whiteSpace=wrap;html=1;fontSize=18;fillColor=#66B2FF;strokeColor=#000033;" vertex="1" parent="0OdUJ_X-ruLMUODwXzn7-1">
          <mxGeometry y="147.09" width="226.66666666666666" height="126.91283292978208" as="geometry" />
        </mxCell>
        <mxCell id="0OdUJ_X-ruLMUODwXzn7-9" value="" style="group" vertex="1" connectable="0" parent="1">
          <mxGeometry x="1040" y="216" width="226.67" height="888.3898305084746" as="geometry" />
        </mxCell>
        <mxCell id="0OdUJ_X-ruLMUODwXzn7-10" value="物理层" style="rounded=0;whiteSpace=wrap;html=1;fontSize=18;fillColor=#001933;strokeColor=#000033;" vertex="1" parent="0OdUJ_X-ruLMUODwXzn7-9">
          <mxGeometry y="761.48" width="226.67" height="38.52" as="geometry" />
        </mxCell>
        <mxCell id="0OdUJ_X-ruLMUODwXzn7-11" value="数据链路层" style="rounded=0;whiteSpace=wrap;html=1;fontSize=18;fillColor=#003366;strokeColor=#000033;" vertex="1" parent="0OdUJ_X-ruLMUODwXzn7-9">
          <mxGeometry y="634.5641646489105" width="226.66666666666666" height="126.91283292978208" as="geometry" />
        </mxCell>
        <mxCell id="0OdUJ_X-ruLMUODwXzn7-12" value="网络层" style="rounded=0;whiteSpace=wrap;html=1;fontSize=18;fillColor=#004C99;strokeColor=#000033;" vertex="1" parent="0OdUJ_X-ruLMUODwXzn7-9">
          <mxGeometry y="507.65133171912834" width="226.66666666666666" height="126.91283292978208" as="geometry" />
        </mxCell>
        <mxCell id="0OdUJ_X-ruLMUODwXzn7-13" value="传输层" style="rounded=0;whiteSpace=wrap;html=1;fontSize=18;fillColor=#0066CC;strokeColor=#000033;" vertex="1" parent="0OdUJ_X-ruLMUODwXzn7-9">
          <mxGeometry y="380.73849878934624" width="226.66666666666666" height="126.91283292978208" as="geometry" />
        </mxCell>
        <mxCell id="0OdUJ_X-ruLMUODwXzn7-14" value="会话层" style="rounded=0;whiteSpace=wrap;html=1;fontSize=18;fillColor=#007FFF;strokeColor=#000033;" vertex="1" parent="0OdUJ_X-ruLMUODwXzn7-9">
          <mxGeometry y="340" width="226.67" height="40.74" as="geometry" />
        </mxCell>
        <mxCell id="0OdUJ_X-ruLMUODwXzn7-15" value="表示层" style="rounded=0;whiteSpace=wrap;html=1;fontSize=18;fillColor=#3399FF;strokeColor=#000033;" vertex="1" parent="0OdUJ_X-ruLMUODwXzn7-9">
          <mxGeometry y="296.17" width="226.67" height="43.83" as="geometry" />
        </mxCell>
        <mxCell id="0OdUJ_X-ruLMUODwXzn7-16" value="应用层" style="rounded=0;whiteSpace=wrap;html=1;fontSize=18;fillColor=#66B2FF;strokeColor=#000033;" vertex="1" parent="0OdUJ_X-ruLMUODwXzn7-9">
          <mxGeometry y="169.26" width="226.66666666666666" height="126.91283292978208" as="geometry" />
        </mxCell>
        <mxCell id="0OdUJ_X-ruLMUODwXzn7-17" value="" style="endArrow=classic;html=1;rounded=0;strokeWidth=10;strokeColor=#3333FF;fontColor=none;noLabel=1;" edge="1" parent="1">
          <mxGeometry width="50" height="50" relative="1" as="geometry">
            <mxPoint x="320" y="361.37288135593224" as="sourcePoint" />
            <mxPoint x="320" y="869.0242130750605" as="targetPoint" />
          </mxGeometry>
        </mxCell>
        <mxCell id="0OdUJ_X-ruLMUODwXzn7-18" value="" style="endArrow=classic;html=1;rounded=0;strokeWidth=10;strokeColor=#3333FF;fontColor=none;noLabel=1;" edge="1" parent="1">
          <mxGeometry width="50" height="50" relative="1" as="geometry">
            <mxPoint x="1320" y="869.0242130750605" as="sourcePoint" />
            <mxPoint x="1320" y="338.29782082324454" as="targetPoint" />
          </mxGeometry>
        </mxCell>
        <mxCell id="0OdUJ_X-ruLMUODwXzn7-40" value="" style="endArrow=classic;html=1;rounded=0;strokeWidth=10;strokeColor=#3333FF;fontColor=none;noLabel=1;" edge="1" parent="1">
          <mxGeometry width="50" height="50" relative="1" as="geometry">
            <mxPoint x="739.9966666666667" y="1000" as="sourcePoint" />
            <mxPoint x="910" y="1000" as="targetPoint" />
          </mxGeometry>
        </mxCell>
        <mxCell id="0OdUJ_X-ruLMUODwXzn7-47" value="" style="group" vertex="1" connectable="0" parent="1">
          <mxGeometry x="630" y="400" width="170" height="60" as="geometry" />
        </mxCell>
        <mxCell id="2x8SvF6BSpnkl-bFNX3e-1" value="HTTP" style="rounded=0;whiteSpace=wrap;html=1;fillColor=#3D0021;fontColor=#ffffff;strokeColor=#A50040;" vertex="1" parent="0OdUJ_X-ruLMUODwXzn7-47">
          <mxGeometry width="170" height="30" as="geometry" />
        </mxCell>
        <mxCell id="0OdUJ_X-ruLMUODwXzn7-46" value="DATA" style="rounded=0;whiteSpace=wrap;html=1;fillColor=#210012;fontColor=#ffffff;strokeColor=#A50040;" vertex="1" parent="0OdUJ_X-ruLMUODwXzn7-47">
          <mxGeometry y="30" width="170" height="30" as="geometry" />
        </mxCell>
        <mxCell id="0OdUJ_X-ruLMUODwXzn7-60" style="edgeStyle=orthogonalEdgeStyle;rounded=0;orthogonalLoop=1;jettySize=auto;html=1;entryX=1;entryY=0;entryDx=0;entryDy=0;" edge="1" parent="1" source="0OdUJ_X-ruLMUODwXzn7-46">
          <mxGeometry relative="1" as="geometry">
            <mxPoint x="715" y="630" as="targetPoint" />
          </mxGeometry>
        </mxCell>
        <mxCell id="0OdUJ_X-ruLMUODwXzn7-67" value="" style="group" vertex="1" connectable="0" parent="1">
          <mxGeometry x="630" y="630" width="170" height="60" as="geometry" />
        </mxCell>
        <mxCell id="0OdUJ_X-ruLMUODwXzn7-68" value="HTTP" style="rounded=0;whiteSpace=wrap;html=1;fillColor=#3D0021;fontColor=#ffffff;strokeColor=#A50040;" vertex="1" parent="0OdUJ_X-ruLMUODwXzn7-67">
          <mxGeometry x="90" width="80" height="30" as="geometry" />
        </mxCell>
        <mxCell id="0OdUJ_X-ruLMUODwXzn7-69" value="TCP" style="rounded=0;whiteSpace=wrap;html=1;fillColor=#54002D;fontColor=#ffffff;strokeColor=#A50040;" vertex="1" parent="0OdUJ_X-ruLMUODwXzn7-67">
          <mxGeometry width="90" height="30" as="geometry" />
        </mxCell>
        <mxCell id="0OdUJ_X-ruLMUODwXzn7-72" value="DATA" style="rounded=0;whiteSpace=wrap;html=1;fillColor=#210012;fontColor=#ffffff;strokeColor=#A50040;" vertex="1" parent="0OdUJ_X-ruLMUODwXzn7-67">
          <mxGeometry y="30" width="170" height="30" as="geometry" />
        </mxCell>
        <mxCell id="0OdUJ_X-ruLMUODwXzn7-73" value="" style="group" vertex="1" connectable="0" parent="1">
          <mxGeometry x="630" y="750" width="170" height="60" as="geometry" />
        </mxCell>
        <mxCell id="0OdUJ_X-ruLMUODwXzn7-74" value="HTTP" style="rounded=0;whiteSpace=wrap;html=1;fillColor=#3D0021;fontColor=#ffffff;strokeColor=#A50040;" vertex="1" parent="0OdUJ_X-ruLMUODwXzn7-73">
          <mxGeometry x="127.5" width="42.5" height="30" as="geometry" />
        </mxCell>
        <mxCell id="0OdUJ_X-ruLMUODwXzn7-75" value="TCP" style="rounded=0;whiteSpace=wrap;html=1;fillColor=#54002D;fontColor=#ffffff;strokeColor=#A50040;" vertex="1" parent="0OdUJ_X-ruLMUODwXzn7-73">
          <mxGeometry x="60" width="67.5" height="30" as="geometry" />
        </mxCell>
        <mxCell id="0OdUJ_X-ruLMUODwXzn7-76" value="IP" style="rounded=0;whiteSpace=wrap;html=1;fillColor=#820045;fontColor=#ffffff;strokeColor=#A50040;" vertex="1" parent="0OdUJ_X-ruLMUODwXzn7-73">
          <mxGeometry width="65" height="30" as="geometry" />
        </mxCell>
        <mxCell id="0OdUJ_X-ruLMUODwXzn7-78" value="DATA" style="rounded=0;whiteSpace=wrap;html=1;fillColor=#210012;fontColor=#ffffff;strokeColor=#A50040;" vertex="1" parent="0OdUJ_X-ruLMUODwXzn7-73">
          <mxGeometry y="30" width="170" height="30" as="geometry" />
        </mxCell>
        <mxCell id="0OdUJ_X-ruLMUODwXzn7-85" value="" style="group" vertex="1" connectable="0" parent="1">
          <mxGeometry x="630" y="890" width="170" height="60" as="geometry" />
        </mxCell>
        <mxCell id="0OdUJ_X-ruLMUODwXzn7-86" value="HTTP" style="rounded=0;whiteSpace=wrap;html=1;fillColor=#3D0021;fontColor=#ffffff;strokeColor=#A50040;" vertex="1" parent="0OdUJ_X-ruLMUODwXzn7-85">
          <mxGeometry x="127.5" width="42.5" height="30" as="geometry" />
        </mxCell>
        <mxCell id="0OdUJ_X-ruLMUODwXzn7-87" value="TCP" style="rounded=0;whiteSpace=wrap;html=1;fillColor=#54002D;fontColor=#ffffff;strokeColor=#A50040;" vertex="1" parent="0OdUJ_X-ruLMUODwXzn7-85">
          <mxGeometry x="85" width="42.5" height="30" as="geometry" />
        </mxCell>
        <mxCell id="0OdUJ_X-ruLMUODwXzn7-88" value="IP" style="rounded=0;whiteSpace=wrap;html=1;fillColor=#820045;fontColor=#ffffff;strokeColor=#A50040;" vertex="1" parent="0OdUJ_X-ruLMUODwXzn7-85">
          <mxGeometry x="42.5" width="42.5" height="30" as="geometry" />
        </mxCell>
        <mxCell id="0OdUJ_X-ruLMUODwXzn7-89" value="ETH II" style="rounded=0;whiteSpace=wrap;html=1;fillColor=#d80073;fontColor=#ffffff;strokeColor=#A50040;" vertex="1" parent="0OdUJ_X-ruLMUODwXzn7-85">
          <mxGeometry width="42.5" height="30" as="geometry" />
        </mxCell>
        <mxCell id="0OdUJ_X-ruLMUODwXzn7-90" value="DATA" style="rounded=0;whiteSpace=wrap;html=1;fillColor=#210012;fontColor=#ffffff;strokeColor=#A50040;" vertex="1" parent="0OdUJ_X-ruLMUODwXzn7-85">
          <mxGeometry y="30" width="170" height="30" as="geometry" />
        </mxCell>
        <mxCell id="0OdUJ_X-ruLMUODwXzn7-91" style="edgeStyle=orthogonalEdgeStyle;rounded=0;orthogonalLoop=1;jettySize=auto;html=1;entryX=1;entryY=0;entryDx=0;entryDy=0;" edge="1" parent="1" source="0OdUJ_X-ruLMUODwXzn7-78" target="0OdUJ_X-ruLMUODwXzn7-88">
          <mxGeometry relative="1" as="geometry" />
        </mxCell>
        <mxCell id="0OdUJ_X-ruLMUODwXzn7-93" style="edgeStyle=orthogonalEdgeStyle;rounded=0;orthogonalLoop=1;jettySize=auto;html=1;entryX=0.374;entryY=0.015;entryDx=0;entryDy=0;entryPerimeter=0;" edge="1" parent="1" source="0OdUJ_X-ruLMUODwXzn7-72" target="0OdUJ_X-ruLMUODwXzn7-75">
          <mxGeometry relative="1" as="geometry" />
        </mxCell>
        <mxCell id="0OdUJ_X-ruLMUODwXzn7-115" value="" style="group" vertex="1" connectable="0" parent="1">
          <mxGeometry x="850" y="400" width="170" height="60" as="geometry" />
        </mxCell>
        <mxCell id="0OdUJ_X-ruLMUODwXzn7-116" value="HTTP" style="rounded=0;whiteSpace=wrap;html=1;fillColor=#3D0021;fontColor=#ffffff;strokeColor=#A50040;" vertex="1" parent="0OdUJ_X-ruLMUODwXzn7-115">
          <mxGeometry width="170" height="30" as="geometry" />
        </mxCell>
        <mxCell id="0OdUJ_X-ruLMUODwXzn7-117" value="DATA" style="rounded=0;whiteSpace=wrap;html=1;fillColor=#210012;fontColor=#ffffff;strokeColor=#A50040;" vertex="1" parent="0OdUJ_X-ruLMUODwXzn7-115">
          <mxGeometry y="30" width="170" height="30" as="geometry" />
        </mxCell>
        <mxCell id="0OdUJ_X-ruLMUODwXzn7-119" style="edgeStyle=orthogonalEdgeStyle;rounded=0;orthogonalLoop=1;jettySize=auto;html=1;entryX=0.5;entryY=1;entryDx=0;entryDy=0;" edge="1" parent="1" source="0OdUJ_X-ruLMUODwXzn7-118" target="0OdUJ_X-ruLMUODwXzn7-105">
          <mxGeometry relative="1" as="geometry" />
        </mxCell>
        <mxCell id="0OdUJ_X-ruLMUODwXzn7-127" style="edgeStyle=orthogonalEdgeStyle;rounded=0;orthogonalLoop=1;jettySize=auto;html=1;entryX=0.5;entryY=1;entryDx=0;entryDy=0;" edge="1" parent="1" source="0OdUJ_X-ruLMUODwXzn7-126" target="0OdUJ_X-ruLMUODwXzn7-114">
          <mxGeometry relative="1" as="geometry" />
        </mxCell>
        <mxCell id="0OdUJ_X-ruLMUODwXzn7-140" style="edgeStyle=orthogonalEdgeStyle;rounded=0;orthogonalLoop=1;jettySize=auto;html=1;entryX=0.5;entryY=1;entryDx=0;entryDy=0;" edge="1" parent="1" target="0OdUJ_X-ruLMUODwXzn7-117">
          <mxGeometry relative="1" as="geometry">
            <mxPoint x="935" y="630" as="sourcePoint" />
          </mxGeometry>
        </mxCell>
      </root>
    </mxGraphModel>
  </diagram>
  <diagram id="N3zAHwdacNP5b-vzsmd-" name="UDP协议">
    <mxGraphModel dx="819" dy="478" grid="1" gridSize="10" guides="1" tooltips="1" connect="1" arrows="1" fold="1" page="1" pageScale="1" pageWidth="827" pageHeight="1169" math="0" shadow="0">
      <root>
        <mxCell id="0" />
        <mxCell id="1" parent="0" />
        <mxCell id="0Oc4zxLIeq08-ocNPeNl-1" value="Source Port" style="rounded=0;whiteSpace=wrap;html=1;fillColor=#a20025;fontColor=#ffffff;strokeColor=#6F0000;" vertex="1" parent="1">
          <mxGeometry x="200" y="280" width="160" height="40" as="geometry" />
        </mxCell>
        <mxCell id="0Oc4zxLIeq08-ocNPeNl-2" value="Target Port" style="rounded=0;whiteSpace=wrap;html=1;fillColor=#d80073;fontColor=#ffffff;strokeColor=#A50040;" vertex="1" parent="1">
          <mxGeometry x="360" y="280" width="160" height="40" as="geometry" />
        </mxCell>
        <mxCell id="0Oc4zxLIeq08-ocNPeNl-3" value="Length" style="rounded=0;whiteSpace=wrap;html=1;fillColor=#d80073;fontColor=#ffffff;strokeColor=#A50040;" vertex="1" parent="1">
          <mxGeometry x="200" y="320" width="160" height="40" as="geometry" />
        </mxCell>
        <mxCell id="0Oc4zxLIeq08-ocNPeNl-4" value="Checksum" style="rounded=0;whiteSpace=wrap;html=1;fillColor=#a20025;fontColor=#ffffff;strokeColor=#6F0000;" vertex="1" parent="1">
          <mxGeometry x="360" y="320" width="160" height="40" as="geometry" />
        </mxCell>
        <mxCell id="D5ee0bJev2Mz9nHNic5_-1" value="" style="endArrow=none;dashed=1;html=1;rounded=0;" edge="1" parent="1">
          <mxGeometry width="50" height="50" relative="1" as="geometry">
            <mxPoint x="200" y="440" as="sourcePoint" />
            <mxPoint x="200" y="240" as="targetPoint" />
          </mxGeometry>
        </mxCell>
        <mxCell id="D5ee0bJev2Mz9nHNic5_-2" value="" style="endArrow=none;dashed=1;html=1;rounded=0;" edge="1" parent="1">
          <mxGeometry width="50" height="50" relative="1" as="geometry">
            <mxPoint x="360" y="440" as="sourcePoint" />
            <mxPoint x="360" y="240" as="targetPoint" />
          </mxGeometry>
        </mxCell>
        <mxCell id="D5ee0bJev2Mz9nHNic5_-3" value="" style="endArrow=none;dashed=1;html=1;rounded=0;" edge="1" parent="1">
          <mxGeometry width="50" height="50" relative="1" as="geometry">
            <mxPoint x="520" y="440" as="sourcePoint" />
            <mxPoint x="520" y="240" as="targetPoint" />
          </mxGeometry>
        </mxCell>
        <mxCell id="D5ee0bJev2Mz9nHNic5_-4" value="2 bytes" style="text;html=1;align=center;verticalAlign=middle;whiteSpace=wrap;rounded=0;" vertex="1" parent="1">
          <mxGeometry x="330" y="220" width="60" height="20" as="geometry" />
        </mxCell>
        <mxCell id="NzXgHgiYuSotUTtFBWc3-1" value="4 bytes" style="text;html=1;align=center;verticalAlign=middle;whiteSpace=wrap;rounded=0;" vertex="1" parent="1">
          <mxGeometry x="490" y="220" width="60" height="20" as="geometry" />
        </mxCell>
        <mxCell id="vxRVlGu5_BFbv8YotD03-1" value="0" style="text;html=1;align=center;verticalAlign=middle;whiteSpace=wrap;rounded=0;" vertex="1" parent="1">
          <mxGeometry x="170" y="220" width="60" height="20" as="geometry" />
        </mxCell>
        <mxCell id="vxRVlGu5_BFbv8YotD03-2" value="" style="shape=curlyBracket;whiteSpace=wrap;html=1;rounded=1;flipH=1;labelPosition=right;verticalLabelPosition=middle;align=left;verticalAlign=middle;" vertex="1" parent="1">
          <mxGeometry x="520" y="280" width="20" height="80" as="geometry" />
        </mxCell>
        <mxCell id="vxRVlGu5_BFbv8YotD03-3" value="8 bytes" style="text;html=1;align=center;verticalAlign=middle;whiteSpace=wrap;rounded=0;" vertex="1" parent="1">
          <mxGeometry x="540" y="310" width="50" height="20" as="geometry" />
        </mxCell>
        <mxCell id="vxRVlGu5_BFbv8YotD03-4" value="Data" style="rounded=0;whiteSpace=wrap;html=1;fillColor=#6a00ff;fontColor=#ffffff;strokeColor=#3700CC;" vertex="1" parent="1">
          <mxGeometry x="200" y="360" width="320" height="40" as="geometry" />
        </mxCell>
      </root>
    </mxGraphModel>
  </diagram>
  <diagram id="hENRi2vMCEiOWJ0IjgAi" name="TCP协议">
    <mxGraphModel dx="819" dy="478" grid="1" gridSize="10" guides="1" tooltips="1" connect="1" arrows="1" fold="1" page="1" pageScale="1" pageWidth="827" pageHeight="1169" math="0" shadow="0">
      <root>
        <mxCell id="0" />
        <mxCell id="1" parent="0" />
        <mxCell id="4jE3h5zeMERqz20k9GlQ-17" value="" style="endArrow=none;dashed=1;html=1;rounded=0;" edge="1" parent="1">
          <mxGeometry width="50" height="50" relative="1" as="geometry">
            <mxPoint x="280" y="560" as="sourcePoint" />
            <mxPoint x="280" y="240" as="targetPoint" />
          </mxGeometry>
        </mxCell>
        <mxCell id="4jE3h5zeMERqz20k9GlQ-1" value="Source Port" style="rounded=0;whiteSpace=wrap;html=1;fillColor=#a20025;fontColor=#ffffff;strokeColor=#6F0000;" vertex="1" parent="1">
          <mxGeometry x="200" y="280" width="160" height="40" as="geometry" />
        </mxCell>
        <mxCell id="4jE3h5zeMERqz20k9GlQ-2" value="Target Port" style="rounded=0;whiteSpace=wrap;html=1;fillColor=#d80073;fontColor=#ffffff;strokeColor=#A50040;" vertex="1" parent="1">
          <mxGeometry x="360" y="280" width="160" height="40" as="geometry" />
        </mxCell>
        <mxCell id="4jE3h5zeMERqz20k9GlQ-5" value="" style="endArrow=none;dashed=1;html=1;rounded=0;" edge="1" parent="1">
          <mxGeometry width="50" height="50" relative="1" as="geometry">
            <mxPoint x="200" y="560" as="sourcePoint" />
            <mxPoint x="200" y="240" as="targetPoint" />
          </mxGeometry>
        </mxCell>
        <mxCell id="4jE3h5zeMERqz20k9GlQ-6" value="" style="endArrow=none;dashed=1;html=1;rounded=0;" edge="1" parent="1">
          <mxGeometry width="50" height="50" relative="1" as="geometry">
            <mxPoint x="360" y="560" as="sourcePoint" />
            <mxPoint x="360" y="240" as="targetPoint" />
          </mxGeometry>
        </mxCell>
        <mxCell id="4jE3h5zeMERqz20k9GlQ-7" value="" style="endArrow=none;dashed=1;html=1;rounded=0;" edge="1" parent="1">
          <mxGeometry width="50" height="50" relative="1" as="geometry">
            <mxPoint x="520" y="560" as="sourcePoint" />
            <mxPoint x="520" y="240" as="targetPoint" />
          </mxGeometry>
        </mxCell>
        <mxCell id="4jE3h5zeMERqz20k9GlQ-8" value="2 bytes" style="text;html=1;align=center;verticalAlign=middle;whiteSpace=wrap;rounded=0;" vertex="1" parent="1">
          <mxGeometry x="330" y="220" width="60" height="20" as="geometry" />
        </mxCell>
        <mxCell id="4jE3h5zeMERqz20k9GlQ-9" value="4 bytes" style="text;html=1;align=center;verticalAlign=middle;whiteSpace=wrap;rounded=0;" vertex="1" parent="1">
          <mxGeometry x="490" y="220" width="60" height="20" as="geometry" />
        </mxCell>
        <mxCell id="4jE3h5zeMERqz20k9GlQ-10" value="0" style="text;html=1;align=center;verticalAlign=middle;whiteSpace=wrap;rounded=0;" vertex="1" parent="1">
          <mxGeometry x="170" y="220" width="60" height="20" as="geometry" />
        </mxCell>
        <mxCell id="4jE3h5zeMERqz20k9GlQ-14" value="" style="endArrow=none;dashed=1;html=1;rounded=0;" edge="1" parent="1" target="4jE3h5zeMERqz20k9GlQ-13">
          <mxGeometry width="50" height="50" relative="1" as="geometry">
            <mxPoint x="360" y="440" as="sourcePoint" />
            <mxPoint x="360" y="240" as="targetPoint" />
          </mxGeometry>
        </mxCell>
        <mxCell id="4jE3h5zeMERqz20k9GlQ-13" value="Sequence Number" style="rounded=0;whiteSpace=wrap;html=1;fillColor=#6a00ff;fontColor=#ffffff;strokeColor=#3700CC;" vertex="1" parent="1">
          <mxGeometry x="200" y="320" width="320" height="40" as="geometry" />
        </mxCell>
        <mxCell id="4jE3h5zeMERqz20k9GlQ-15" value="Acknowledgment Number" style="rounded=0;whiteSpace=wrap;html=1;fillColor=#1ba1e2;fontColor=#ffffff;strokeColor=#006EAF;" vertex="1" parent="1">
          <mxGeometry x="200" y="360" width="320" height="40" as="geometry" />
        </mxCell>
        <mxCell id="4jE3h5zeMERqz20k9GlQ-16" value="Data&lt;div&gt;Offset&lt;/div&gt;" style="rounded=0;whiteSpace=wrap;html=1;fillColor=#d80073;fontColor=#ffffff;strokeColor=#A50040;" vertex="1" parent="1">
          <mxGeometry x="200" y="400" width="40" height="40" as="geometry" />
        </mxCell>
        <mxCell id="4jE3h5zeMERqz20k9GlQ-18" value="1 byte" style="text;html=1;align=center;verticalAlign=middle;whiteSpace=wrap;rounded=0;" vertex="1" parent="1">
          <mxGeometry x="250" y="220" width="60" height="20" as="geometry" />
        </mxCell>
        <mxCell id="4jE3h5zeMERqz20k9GlQ-19" value="Unused" style="rounded=0;whiteSpace=wrap;html=1;fillColor=#6a00ff;fontColor=#ffffff;strokeColor=#3700CC;" vertex="1" parent="1">
          <mxGeometry x="240" y="400" width="60" height="40" as="geometry" />
        </mxCell>
        <mxCell id="4jE3h5zeMERqz20k9GlQ-20" value="Flags" style="rounded=0;whiteSpace=wrap;html=1;fillColor=#d80073;fontColor=#ffffff;strokeColor=#A50040;" vertex="1" parent="1">
          <mxGeometry x="300" y="400" width="60" height="40" as="geometry" />
        </mxCell>
        <mxCell id="4jE3h5zeMERqz20k9GlQ-21" value="Window Size" style="rounded=0;whiteSpace=wrap;html=1;fillColor=#a20025;fontColor=#ffffff;strokeColor=#6F0000;" vertex="1" parent="1">
          <mxGeometry x="360" y="400" width="160" height="40" as="geometry" />
        </mxCell>
        <mxCell id="4jE3h5zeMERqz20k9GlQ-22" value="Checksum" style="rounded=0;whiteSpace=wrap;html=1;fillColor=#1ba1e2;fontColor=#ffffff;strokeColor=#006EAF;" vertex="1" parent="1">
          <mxGeometry x="200" y="440" width="160" height="40" as="geometry" />
        </mxCell>
        <mxCell id="4jE3h5zeMERqz20k9GlQ-23" value="Urgent Pointer" style="rounded=0;whiteSpace=wrap;html=1;fillColor=#1ba1e2;fontColor=#ffffff;strokeColor=#006EAF;" vertex="1" parent="1">
          <mxGeometry x="360" y="440" width="160" height="40" as="geometry" />
        </mxCell>
        <mxCell id="atpHI43MipLbiWIUAjux-1" value="&lt;b&gt;Options&lt;/b&gt;&amp;nbsp; &amp;nbsp; &amp;nbsp; &amp;nbsp; &amp;nbsp; &amp;nbsp; &amp;nbsp; &amp;nbsp; &amp;nbsp; &amp;nbsp; &amp;nbsp; &amp;nbsp; &amp;nbsp; &amp;nbsp; &amp;nbsp; &amp;nbsp; &amp;nbsp; &amp;nbsp; &amp;nbsp; &amp;nbsp; &amp;nbsp; &amp;nbsp; &amp;nbsp; &amp;nbsp; &amp;nbsp; &amp;nbsp; &amp;nbsp; &amp;nbsp; &amp;nbsp; &amp;nbsp; &amp;nbsp; &amp;nbsp; &amp;nbsp; &lt;b style=&quot;&quot;&gt;&lt;font color=&quot;#ffffff&quot;&gt;Padding&lt;/font&gt;&lt;/b&gt;" style="rounded=0;whiteSpace=wrap;html=1;gradientColor=#006CD9;gradientDirection=east;fillColor=#000033;" vertex="1" parent="1">
          <mxGeometry x="200" y="480" width="320" height="40" as="geometry" />
        </mxCell>
      </root>
    </mxGraphModel>
  </diagram>
  <diagram id="y2O5nUd-KZagtKYNTxgh" name="TCP原理">
    <mxGraphModel dx="683" dy="398" grid="1" gridSize="10" guides="1" tooltips="1" connect="1" arrows="1" fold="1" page="1" pageScale="1" pageWidth="827" pageHeight="1169" math="0" shadow="0">
      <root>
        <mxCell id="0" />
        <mxCell id="1" parent="0" />
        <mxCell id="wmK8Mq58UrFr3yaDxfb9-4" value="" style="rounded=0;whiteSpace=wrap;html=1;strokeColor=#b46504;fillColor=#fad7ac;" vertex="1" parent="1">
          <mxGeometry x="215" y="240" width="10" height="640" as="geometry" />
        </mxCell>
        <mxCell id="wmK8Mq58UrFr3yaDxfb9-5" value="" style="rounded=0;whiteSpace=wrap;html=1;strokeColor=#b46504;fillColor=#fad7ac;" vertex="1" parent="1">
          <mxGeometry x="495" y="240" width="10" height="640" as="geometry" />
        </mxCell>
        <mxCell id="wmK8Mq58UrFr3yaDxfb9-1" value="客户端&lt;div&gt;(发起Close)&lt;/div&gt;" style="rounded=1;whiteSpace=wrap;html=1;strokeColor=#0F8B8D;fontColor=#143642;fillColor=#FAE5C7;fontFamily=Comic Sans MS;" vertex="1" parent="1">
          <mxGeometry x="170" y="240" width="100" height="30" as="geometry" />
        </mxCell>
        <mxCell id="wmK8Mq58UrFr3yaDxfb9-2" value="服务端" style="rounded=1;whiteSpace=wrap;html=1;strokeColor=#0F8B8D;fontColor=#143642;fillColor=#FAE5C7;fontFamily=Comic Sans MS;" vertex="1" parent="1">
          <mxGeometry x="450" y="240" width="90" height="30" as="geometry" />
        </mxCell>
        <mxCell id="wmK8Mq58UrFr3yaDxfb9-3" value="&lt;div class=&quot;lake-content&quot;&gt;&lt;strong&gt;ESTABLISHED&lt;/strong&gt;&lt;/div&gt;" style="rounded=0;whiteSpace=wrap;html=1;strokeColor=#314354;fontColor=#ffffff;fillColor=#647687;" vertex="1" parent="1">
          <mxGeometry x="175" y="490" width="90" height="20" as="geometry" />
        </mxCell>
        <mxCell id="wmK8Mq58UrFr3yaDxfb9-6" value="" style="endArrow=classic;html=1;rounded=0;strokeColor=#A8201A;fontColor=#143642;fillColor=#FAE5C7;" edge="1" parent="1">
          <mxGeometry width="50" height="50" relative="1" as="geometry">
            <mxPoint x="230" y="380" as="sourcePoint" />
            <mxPoint x="490" y="380" as="targetPoint" />
          </mxGeometry>
        </mxCell>
        <mxCell id="wmK8Mq58UrFr3yaDxfb9-7" value="&lt;div class=&quot;lake-content&quot;&gt;&lt;strong&gt;CLOSED&lt;/strong&gt;&lt;/div&gt;" style="rounded=0;whiteSpace=wrap;html=1;strokeColor=#B20000;fontColor=#ffffff;fillColor=#e51400;" vertex="1" parent="1">
          <mxGeometry x="192.5" y="290" width="55" height="20" as="geometry" />
        </mxCell>
        <mxCell id="wmK8Mq58UrFr3yaDxfb9-8" value="&lt;div class=&quot;lake-content&quot;&gt;&lt;strong&gt;CLOSED&lt;/strong&gt;&lt;/div&gt;" style="rounded=0;whiteSpace=wrap;html=1;strokeColor=#B20000;fontColor=#ffffff;fillColor=#e51400;" vertex="1" parent="1">
          <mxGeometry x="472.5" y="290" width="55" height="20" as="geometry" />
        </mxCell>
        <mxCell id="wmK8Mq58UrFr3yaDxfb9-9" value="&lt;div class=&quot;lake-content&quot;&gt;&lt;strong&gt;LISTEN&lt;/strong&gt;&lt;/div&gt;" style="rounded=0;whiteSpace=wrap;html=1;strokeColor=#314354;fontColor=#ffffff;fillColor=#647687;" vertex="1" parent="1">
          <mxGeometry x="472.5" y="340" width="55" height="20" as="geometry" />
        </mxCell>
        <mxCell id="wmK8Mq58UrFr3yaDxfb9-10" value="&lt;div class=&quot;lake-content&quot;&gt;&lt;strong&gt;SYN-SENT&lt;/strong&gt;&lt;/div&gt;" style="rounded=0;whiteSpace=wrap;html=1;strokeColor=#3A5431;fontColor=#ffffff;fillColor=#6d8764;" vertex="1" parent="1">
          <mxGeometry x="181.25" y="390" width="77.5" height="20" as="geometry" />
        </mxCell>
        <mxCell id="wmK8Mq58UrFr3yaDxfb9-11" value="SYN" style="text;html=1;align=center;verticalAlign=middle;whiteSpace=wrap;rounded=0;fontColor=#FF3333;" vertex="1" parent="1">
          <mxGeometry x="320" y="360" width="80" height="20" as="geometry" />
        </mxCell>
        <mxCell id="wmK8Mq58UrFr3yaDxfb9-13" value="&lt;div class=&quot;lake-content&quot;&gt;&lt;strong&gt;SYN-RECEIVED&lt;/strong&gt;&lt;/div&gt;" style="rounded=0;whiteSpace=wrap;html=1;strokeColor=#3A5431;fontColor=#ffffff;fillColor=#6d8764;" vertex="1" parent="1">
          <mxGeometry x="450.62" y="440" width="98.75" height="20" as="geometry" />
        </mxCell>
        <mxCell id="wmK8Mq58UrFr3yaDxfb9-15" value="" style="endArrow=classic;html=1;rounded=0;strokeColor=#A8201A;fontColor=#143642;fillColor=#FAE5C7;" edge="1" parent="1">
          <mxGeometry width="50" height="50" relative="1" as="geometry">
            <mxPoint x="490" y="430" as="sourcePoint" />
            <mxPoint x="230" y="430" as="targetPoint" />
          </mxGeometry>
        </mxCell>
        <mxCell id="wmK8Mq58UrFr3yaDxfb9-16" value="SYN, ACK" style="text;html=1;align=center;verticalAlign=middle;whiteSpace=wrap;rounded=0;fontColor=#FF3333;" vertex="1" parent="1">
          <mxGeometry x="280" y="410" width="160" height="20" as="geometry" />
        </mxCell>
        <mxCell id="wmK8Mq58UrFr3yaDxfb9-17" value="" style="endArrow=classic;html=1;rounded=0;strokeColor=#A8201A;fontColor=#143642;fillColor=#FAE5C7;" edge="1" parent="1">
          <mxGeometry width="50" height="50" relative="1" as="geometry">
            <mxPoint x="230" y="470" as="sourcePoint" />
            <mxPoint x="490" y="470" as="targetPoint" />
          </mxGeometry>
        </mxCell>
        <mxCell id="wmK8Mq58UrFr3yaDxfb9-18" value="ACK" style="text;html=1;align=center;verticalAlign=middle;whiteSpace=wrap;rounded=0;fontColor=#FF3333;" vertex="1" parent="1">
          <mxGeometry x="320" y="450" width="80" height="20" as="geometry" />
        </mxCell>
        <mxCell id="wmK8Mq58UrFr3yaDxfb9-20" value="&lt;div class=&quot;lake-content&quot;&gt;&lt;strong&gt;ESTABLISHED&lt;/strong&gt;&lt;/div&gt;" style="rounded=0;whiteSpace=wrap;html=1;strokeColor=#314354;fontColor=#ffffff;fillColor=#647687;" vertex="1" parent="1">
          <mxGeometry x="454.99" y="490" width="90" height="20" as="geometry" />
        </mxCell>
        <mxCell id="wmK8Mq58UrFr3yaDxfb9-21" value="" style="endArrow=classic;html=1;rounded=0;strokeColor=#A8201A;fontColor=#143642;fillColor=#FAE5C7;" edge="1" parent="1">
          <mxGeometry width="50" height="50" relative="1" as="geometry">
            <mxPoint x="230" y="530" as="sourcePoint" />
            <mxPoint x="490" y="530" as="targetPoint" />
          </mxGeometry>
        </mxCell>
        <mxCell id="wmK8Mq58UrFr3yaDxfb9-22" value="FIN" style="text;html=1;align=center;verticalAlign=middle;whiteSpace=wrap;rounded=0;fontColor=#FF3333;" vertex="1" parent="1">
          <mxGeometry x="320" y="510" width="80" height="20" as="geometry" />
        </mxCell>
        <mxCell id="wmK8Mq58UrFr3yaDxfb9-23" value="&lt;div class=&quot;lake-content&quot;&gt;&lt;strong&gt;CLOSE-WAIT&lt;/strong&gt;&lt;/div&gt;" style="rounded=0;whiteSpace=wrap;html=1;strokeColor=#3A5431;fontColor=#ffffff;fillColor=#6d8764;align=center;verticalAlign=middle;fontFamily=Helvetica;fontSize=12;" vertex="1" parent="1">
          <mxGeometry x="454.99" y="620" width="90" height="20" as="geometry" />
        </mxCell>
        <mxCell id="wmK8Mq58UrFr3yaDxfb9-26" value="ACK" style="text;html=1;align=center;verticalAlign=middle;whiteSpace=wrap;rounded=0;fontColor=#FF3333;" vertex="1" parent="1">
          <mxGeometry x="279.99" y="585" width="160" height="20" as="geometry" />
        </mxCell>
        <mxCell id="wmK8Mq58UrFr3yaDxfb9-27" value="" style="endArrow=classic;html=1;rounded=0;strokeColor=#A8201A;fontColor=#143642;fillColor=#FAE5C7;" edge="1" parent="1">
          <mxGeometry width="50" height="50" relative="1" as="geometry">
            <mxPoint x="489.99" y="605" as="sourcePoint" />
            <mxPoint x="229.99" y="605" as="targetPoint" />
          </mxGeometry>
        </mxCell>
        <mxCell id="wmK8Mq58UrFr3yaDxfb9-33" value="&lt;div class=&quot;lake-content&quot;&gt;&lt;strong&gt;FIN-WAIT1&lt;/strong&gt;&lt;/div&gt;" style="rounded=0;whiteSpace=wrap;html=1;strokeColor=#3A5431;fontColor=#ffffff;fillColor=#6d8764;align=center;verticalAlign=middle;fontFamily=Helvetica;fontSize=12;" vertex="1" parent="1">
          <mxGeometry x="182.5" y="560" width="75" height="20" as="geometry" />
        </mxCell>
        <mxCell id="wmK8Mq58UrFr3yaDxfb9-34" value="FIN" style="text;html=1;align=center;verticalAlign=middle;whiteSpace=wrap;rounded=0;fontColor=#FF3333;" vertex="1" parent="1">
          <mxGeometry x="319.99" y="640" width="80" height="20" as="geometry" />
        </mxCell>
        <mxCell id="wmK8Mq58UrFr3yaDxfb9-35" value="" style="endArrow=classic;html=1;rounded=0;strokeColor=#A8201A;fontColor=#143642;fillColor=#FAE5C7;" edge="1" parent="1">
          <mxGeometry width="50" height="50" relative="1" as="geometry">
            <mxPoint x="490" y="660" as="sourcePoint" />
            <mxPoint x="230" y="660" as="targetPoint" />
          </mxGeometry>
        </mxCell>
        <mxCell id="wmK8Mq58UrFr3yaDxfb9-36" value="" style="endArrow=classic;html=1;rounded=0;strokeColor=#A8201A;fontColor=#143642;fillColor=#FAE5C7;" edge="1" parent="1">
          <mxGeometry width="50" height="50" relative="1" as="geometry">
            <mxPoint x="230" y="730" as="sourcePoint" />
            <mxPoint x="490" y="730" as="targetPoint" />
          </mxGeometry>
        </mxCell>
        <mxCell id="wmK8Mq58UrFr3yaDxfb9-37" value="ACK" style="text;html=1;align=center;verticalAlign=middle;whiteSpace=wrap;rounded=0;fontColor=#FF3333;" vertex="1" parent="1">
          <mxGeometry x="279.99" y="710" width="160" height="20" as="geometry" />
        </mxCell>
        <mxCell id="wmK8Mq58UrFr3yaDxfb9-38" value="&lt;div class=&quot;lake-content&quot;&gt;&lt;strong&gt;FIN-WAIT2&lt;/strong&gt;&lt;/div&gt;" style="rounded=0;whiteSpace=wrap;html=1;strokeColor=#3A5431;fontColor=#ffffff;fillColor=#6d8764;align=center;verticalAlign=middle;fontFamily=Helvetica;fontSize=12;" vertex="1" parent="1">
          <mxGeometry x="180" y="620" width="77.5" height="20" as="geometry" />
        </mxCell>
        <mxCell id="wmK8Mq58UrFr3yaDxfb9-41" value="&lt;div class=&quot;lake-content&quot;&gt;&lt;strong&gt;LAST-ACK&lt;/strong&gt;&lt;/div&gt;" style="rounded=0;whiteSpace=wrap;html=1;strokeColor=#3A5431;fontColor=#ffffff;fillColor=#6d8764;align=center;verticalAlign=middle;fontFamily=Helvetica;fontSize=12;" vertex="1" parent="1">
          <mxGeometry x="467.5" y="690" width="65" height="20" as="geometry" />
        </mxCell>
        <mxCell id="wmK8Mq58UrFr3yaDxfb9-42" value="&lt;div class=&quot;lake-content&quot;&gt;&lt;strong&gt;TIME-WAIT&lt;/strong&gt;&lt;/div&gt;" style="rounded=0;whiteSpace=wrap;html=1;strokeColor=#3A5431;fontColor=#ffffff;fillColor=#6d8764;align=center;verticalAlign=middle;fontFamily=Helvetica;fontSize=12;" vertex="1" parent="1">
          <mxGeometry x="182.5" y="750" width="75" height="20" as="geometry" />
        </mxCell>
        <mxCell id="wmK8Mq58UrFr3yaDxfb9-43" value="&lt;div class=&quot;lake-content&quot;&gt;&lt;strong&gt;CLOSED&lt;/strong&gt;&lt;/div&gt;" style="rounded=0;whiteSpace=wrap;html=1;strokeColor=#B20000;fontColor=#ffffff;fillColor=#e51400;" vertex="1" parent="1">
          <mxGeometry x="472.5" y="770" width="55" height="20" as="geometry" />
        </mxCell>
        <mxCell id="wmK8Mq58UrFr3yaDxfb9-44" value="&lt;div class=&quot;lake-content&quot;&gt;&lt;strong&gt;CLOSED&lt;/strong&gt;&lt;/div&gt;" style="rounded=0;whiteSpace=wrap;html=1;strokeColor=#B20000;fontColor=#ffffff;fillColor=#e51400;" vertex="1" parent="1">
          <mxGeometry x="192.5" y="850" width="55" height="20" as="geometry" />
        </mxCell>
        <mxCell id="wmK8Mq58UrFr3yaDxfb9-47" value="" style="shape=flexArrow;endArrow=classic;html=1;rounded=0;strokeColor=#A8201A;fontColor=#143642;fillColor=#FAE5C7;" edge="1" parent="1">
          <mxGeometry width="50" height="50" relative="1" as="geometry">
            <mxPoint x="200" y="830" as="sourcePoint" />
            <mxPoint x="260" y="830" as="targetPoint" />
          </mxGeometry>
        </mxCell>
        <mxCell id="wmK8Mq58UrFr3yaDxfb9-48" value="等待2MSL" style="shape=note;whiteSpace=wrap;html=1;backgroundOutline=1;darkOpacity=0.05;strokeColor=#BD7000;fontColor=#000000;fillColor=#f0a30a;size=13;" vertex="1" parent="1">
          <mxGeometry x="265" y="810" width="90" height="40" as="geometry" />
        </mxCell>
      </root>
    </mxGraphModel>
  </diagram>
  <diagram id="pQOc7r3TEPku2-LNeMR-" name="模拟网卡">
    <mxGraphModel dx="683" dy="398" grid="1" gridSize="10" guides="1" tooltips="1" connect="1" arrows="1" fold="1" page="1" pageScale="1" pageWidth="827" pageHeight="1169" math="0" shadow="0">
      <root>
        <mxCell id="0" />
        <mxCell id="1" parent="0" />
        <mxCell id="oIlCzUzktdkVgWNOoDgq-1" value="Service" style="rounded=1;whiteSpace=wrap;html=1;arcSize=5;fillColor=#001933;" vertex="1" parent="1">
          <mxGeometry x="290" y="240" width="100" height="160" as="geometry" />
        </mxCell>
        <mxCell id="Xd1w0eyjwVM9mnY2UKhO-2" value="网卡设备" style="image;html=1;image=img/lib/clip_art/networking/Concentrator_128x128.png;strokeColor=#FFFFFF;fontColor=#FFFFFF;fillColor=#182E3E;" parent="1" vertex="1">
          <mxGeometry x="530" y="280" width="80" height="80" as="geometry" />
        </mxCell>
        <mxCell id="Xd1w0eyjwVM9mnY2UKhO-3" value="" style="shape=flexArrow;endArrow=classic;html=1;rounded=0;strokeColor=#314354;fillColor=#647687;" parent="1" edge="1">
          <mxGeometry width="50" height="50" relative="1" as="geometry">
            <mxPoint x="494" y="279.76" as="sourcePoint" />
            <mxPoint x="414" y="279.76" as="targetPoint" />
          </mxGeometry>
        </mxCell>
        <mxCell id="Xd1w0eyjwVM9mnY2UKhO-5" value="" style="shape=flexArrow;endArrow=classic;html=1;rounded=0;strokeColor=#314354;fillColor=#647687;" parent="1" edge="1">
          <mxGeometry width="50" height="50" relative="1" as="geometry">
            <mxPoint x="414" y="359.76" as="sourcePoint" />
            <mxPoint x="494" y="359.76" as="targetPoint" />
          </mxGeometry>
        </mxCell>
        <mxCell id="Xd1w0eyjwVM9mnY2UKhO-6" value="ibuf" style="rounded=0;whiteSpace=wrap;html=1;strokeColor=#FFFFFF;fontColor=#FFFFFF;fillColor=#182E3E;" parent="1" vertex="1">
          <mxGeometry x="310" y="260" width="60" height="40" as="geometry" />
        </mxCell>
        <mxCell id="Xd1w0eyjwVM9mnY2UKhO-7" value="obuf" style="rounded=0;whiteSpace=wrap;html=1;strokeColor=#FFFFFF;fontColor=#FFFFFF;fillColor=#182E3E;" parent="1" vertex="1">
          <mxGeometry x="310" y="340" width="60" height="40" as="geometry" />
        </mxCell>
        <mxCell id="oIlCzUzktdkVgWNOoDgq-8" style="edgeStyle=orthogonalEdgeStyle;rounded=0;orthogonalLoop=1;jettySize=auto;html=1;entryX=0;entryY=0.5;entryDx=0;entryDy=0;" edge="1" parent="1" source="oIlCzUzktdkVgWNOoDgq-7" target="oIlCzUzktdkVgWNOoDgq-1">
          <mxGeometry relative="1" as="geometry" />
        </mxCell>
        <mxCell id="oIlCzUzktdkVgWNOoDgq-7" value="Socket" style="rounded=1;whiteSpace=wrap;html=1;strokeColor=#FFFFFF;align=center;verticalAlign=middle;fontFamily=Helvetica;fontSize=12;fontColor=#FFFFFF;fillColor=#182E3E;" vertex="1" parent="1">
          <mxGeometry x="160" y="300" width="80" height="40" as="geometry" />
        </mxCell>
      </root>
    </mxGraphModel>
  </diagram>
</mxfile>
